SplineFontDB: 3.2
FontName: ModeSeven
FullName: ModeSeven
FamilyName: ModeSeven
Weight: Book
Copyright: This rendition (C) 1998 Andrew C. Bul+hac?k. Freely distributable.
Version: Macromedia Fontographer 4.1.2 15/8/98
ItalicAngle: 0
UnderlinePosition: -143
UnderlineWidth: 20
Ascent: 800
Descent: 200
InvalidEm: 0
sfntRevision: 0x00010000
LayerCount: 2
Layer: 0 1 "Back" 1
Layer: 1 1 "Fore" 0
XUID: [1021 89 531737822 8438703]
StyleMap: 0x0040
FSType: 1
OS2Version: 1
OS2_WeightWidthSlopeOnly: 0
OS2_UseTypoMetrics: 0
CreationTime: 903140367
ModificationTime: 1618159417
PfmFamily: 81
TTFWeight: 400
TTFWidth: 5
LineGap: 0
VLineGap: 0
Panose: 0 0 4 9 0 0 0 0 0 0
OS2TypoAscent: 800
OS2TypoAOffset: 0
OS2TypoDescent: -200
OS2TypoDOffset: 0
OS2TypoLinegap: 0
OS2WinAscent: 800
OS2WinAOffset: 0
OS2WinDescent: 200
OS2WinDOffset: 0
HheadAscent: 800
HheadAOffset: 0
HheadDescent: -200
HheadDOffset: 0
OS2SubXSize: 700
OS2SubYSize: 650
OS2SubXOff: 0
OS2SubYOff: 143
OS2SupXSize: 700
OS2SupYSize: 650
OS2SupXOff: 0
OS2SupYOff: 453
OS2StrikeYSize: 50
OS2StrikeYPos: 259
OS2Vendor: 'Alts'
OS2CodePages: 00000001.00000000
OS2UnicodeRanges: 00000000.00000000.00000000.00000000
DEI: 91125
TtTable: prep
NPUSHB
 29
 17
 17
 16
 16
 15
 15
 14
 14
 13
 13
 12
 12
 11
 11
 10
 10
 9
 9
 8
 8
 3
 3
 2
 2
 1
 1
 0
 0
 1
SCANTYPE
PUSHW_1
 511
SCANCTRL
RCVT
ROUND[Grey]
WCVTP
RCVT
ROUND[Grey]
WCVTP
RCVT
ROUND[Grey]
WCVTP
RCVT
ROUND[Grey]
WCVTP
RCVT
ROUND[Grey]
WCVTP
RCVT
ROUND[Grey]
WCVTP
RCVT
ROUND[Grey]
WCVTP
RCVT
ROUND[Grey]
WCVTP
RCVT
ROUND[Grey]
WCVTP
RCVT
ROUND[Grey]
WCVTP
RCVT
ROUND[Grey]
WCVTP
RCVT
ROUND[Grey]
WCVTP
RCVT
ROUND[Grey]
WCVTP
RCVT
ROUND[Grey]
WCVTP
PUSHB_4
 5
 4
 70
 0
CALL
PUSHB_4
 7
 6
 70
 0
CALL
PUSHB_2
 4
 4
RCVT
ROUND[Grey]
WCVTP
PUSHB_2
 6
 6
RCVT
ROUND[Grey]
WCVTP
EndTTInstrs
TtTable: fpgm
NPUSHB
 1
 0
FDEF
SROUND
RCVT
DUP
PUSHB_1
 3
CINDEX
RCVT
SWAP
SUB
ROUND[Grey]
RTG
SWAP
ROUND[Grey]
ADD
WCVTP
ENDF
EndTTInstrs
ShortTable: cvt  31
  -200
  0
  500
  700
  100
  150
  100

StartChar: .notdef
Encoding: 65536 -1 0
Width: 600
Flags: W
LayerCount: 2
Fore
SplineSet
75 0 m 1,0,-1
 75 800 l 1,1,-1
 525 800 l 1,2,-1
 525 0 l 1,3,-1
 75 0 l 1,0,-1
150 75 m 1,4,-1
 450 75 l 1,5,-1
 450 725 l 1,6,-1
 150 725 l 1,7,-1
 150 75 l 1,4,-1
EndSplineSet
Validated: 1
EndChar

StartChar: exclam
Encoding: 33 33 4
Width: 600
GlyphClass: 2
Flags: W
LayerCount: 2
Fore
SplineSet
400 200 m 1,0,-1
 300 200 l 1,1,-1
 300 700 l 1,2,-1
 400 700 l 1,3,-1
 400 200 l 1,0,-1
400 0 m 1,4,-1
 300 0 l 1,5,-1
 300 100 l 1,6,-1
 400 100 l 1,7,-1
 400 0 l 1,4,-1
EndSplineSet
Validated: 1
EndChar

StartChar: quotedbl
Encoding: 34 34 5
Width: 600
GlyphClass: 2
Flags: W
LayerCount: 2
Fore
SplineSet
500 400 m 1,0,-1
 400 400 l 1,1,-1
 400 700 l 1,2,-1
 500 700 l 1,3,-1
 500 400 l 1,0,-1
300 400 m 1,4,-1
 200 400 l 1,5,-1
 200 700 l 1,6,-1
 300 700 l 1,7,-1
 300 400 l 1,4,-1
EndSplineSet
Validated: 1
EndChar

StartChar: numbersign
Encoding: 35 35 6
Width: 600
GlyphClass: 2
Flags: W
LayerCount: 2
Fore
SplineSet
300 300 m 1,0,-1
 400 300 l 1,1,-1
 400 400 l 1,2,-1
 300 400 l 1,3,-1
 300 300 l 1,0,-1
600 200 m 1,4,-1
 500 200 l 1,5,-1
 500 0 l 1,6,-1
 400 0 l 1,7,-1
 400 200 l 1,8,-1
 300 200 l 1,9,-1
 300 0 l 1,10,-1
 200 0 l 1,11,-1
 200 200 l 1,12,-1
 100 200 l 1,13,-1
 100 300 l 1,14,-1
 200 300 l 1,15,-1
 200 400 l 1,16,-1
 100 400 l 1,17,-1
 100 500 l 1,18,-1
 200 500 l 1,19,-1
 200 700 l 1,20,-1
 300 700 l 1,21,-1
 300 500 l 1,22,-1
 400 500 l 1,23,-1
 400 700 l 1,24,-1
 500 700 l 1,25,-1
 500 500 l 1,26,-1
 600 500 l 1,27,-1
 600 400 l 1,28,-1
 500 400 l 1,29,-1
 500 300 l 1,30,-1
 600 300 l 1,31,-1
 600 200 l 1,4,-1
EndSplineSet
Validated: 1
EndChar

StartChar: dollar
Encoding: 36 36 7
Width: 600
GlyphClass: 2
Flags: W
LayerCount: 2
Fore
SplineSet
600 100 m 1,0,-1
 550 100 l 1,1,-1
 550 50 l 1,2,-1
 500 50 l 1,3,-1
 500 0 l 1,4,-1
 200 0 l 1,5,-1
 200 50 l 1,6,-1
 150 50 l 1,7,-1
 150 100 l 1,8,-1
 100 100 l 1,9,-1
 100 200 l 1,10,-1
 200 200 l 1,11,-1
 200 150 l 1,12,-1
 250 150 l 1,13,-1
 250 100 l 1,14,-1
 300 100 l 1,15,-1
 300 300 l 1,16,-1
 200 300 l 1,17,-1
 200 350 l 1,18,-1
 150 350 l 1,19,-1
 150 400 l 1,20,-1
 100 400 l 1,21,-1
 100 600 l 1,22,-1
 150 600 l 1,23,-1
 150 650 l 1,24,-1
 200 650 l 1,25,-1
 200 700 l 1,26,-1
 500 700 l 1,27,-1
 500 650 l 1,28,-1
 550 650 l 1,29,-1
 550 600 l 1,30,-1
 600 600 l 1,31,-1
 600 500 l 1,32,-1
 500 500 l 1,33,-1
 500 550 l 1,34,-1
 450 550 l 1,35,-1
 450 600 l 1,36,-1
 400 600 l 1,37,-1
 400 400 l 1,38,-1
 500 400 l 1,39,-1
 500 350 l 1,40,-1
 550 350 l 1,41,-1
 550 300 l 1,42,-1
 600 300 l 1,43,-1
 600 100 l 1,0,-1
300 400 m 1,44,-1
 300 600 l 1,45,-1
 250 600 l 1,46,-1
 250 550 l 1,47,-1
 200 550 l 1,48,-1
 200 450 l 1,49,-1
 250 450 l 1,50,-1
 250 400 l 1,51,-1
 300 400 l 1,44,-1
500 150 m 1,52,-1
 500 250 l 1,53,-1
 450 250 l 1,54,-1
 450 300 l 1,55,-1
 400 300 l 1,56,-1
 400 100 l 1,57,-1
 450 100 l 1,58,-1
 450 150 l 1,59,-1
 500 150 l 1,52,-1
EndSplineSet
Validated: 1
EndChar

StartChar: percent
Encoding: 37 37 8
Width: 600
GlyphClass: 2
Flags: W
LayerCount: 2
Fore
SplineSet
500 600 m 1,0,-1
 600 600 l 1,1,-1
 600 500 l 1,2,-1
 550 500 l 1,3,-1
 550 450 l 1,4,-1
 500 450 l 1,5,-1
 500 400 l 1,6,-1
 450 400 l 1,7,-1
 450 350 l 1,8,-1
 400 350 l 1,9,-1
 400 300 l 1,10,-1
 350 300 l 1,11,-1
 350 250 l 1,12,-1
 300 250 l 1,13,-1
 300 200 l 1,14,-1
 250 200 l 1,15,-1
 250 150 l 1,16,-1
 200 150 l 1,17,-1
 200 100 l 1,18,-1
 100 100 l 1,19,-1
 100 200 l 1,20,-1
 150 200 l 1,21,-1
 150 250 l 1,22,-1
 200 250 l 1,23,-1
 200 300 l 1,24,-1
 250 300 l 1,25,-1
 250 350 l 1,26,-1
 300 350 l 1,27,-1
 300 400 l 1,28,-1
 350 400 l 1,29,-1
 350 450 l 1,30,-1
 400 450 l 1,31,-1
 400 500 l 1,32,-1
 450 500 l 1,33,-1
 450 550 l 1,34,-1
 500 550 l 1,35,-1
 500 600 l 1,0,-1
100 650 m 1,36,-1
 150 650 l 1,37,-1
 150 700 l 1,38,-1
 250 700 l 1,39,-1
 250 650 l 1,40,-1
 300 650 l 1,41,-1
 300 550 l 1,42,-1
 250 550 l 1,43,-1
 250 500 l 1,44,-1
 150 500 l 1,45,-1
 150 550 l 1,46,-1
 100 550 l 1,47,-1
 100 650 l 1,36,-1
450 200 m 1,48,-1
 550 200 l 1,49,-1
 550 150 l 1,50,-1
 600 150 l 1,51,-1
 600 50 l 1,52,-1
 550 50 l 1,53,-1
 550 0 l 1,54,-1
 450 0 l 1,55,-1
 450 50 l 1,56,-1
 400 50 l 1,57,-1
 400 150 l 1,58,-1
 450 150 l 1,59,-1
 450 200 l 1,48,-1
EndSplineSet
Validated: 1
EndChar

StartChar: ampersand
Encoding: 38 38 9
Width: 600
GlyphClass: 2
Flags: W
LayerCount: 2
Fore
SplineSet
300 250 m 1,0,-1
 200 250 l 1,1,-1
 200 150 l 1,2,-1
 250 150 l 1,3,-1
 250 100 l 1,4,-1
 400 100 l 1,5,-1
 400 150 l 1,6,-1
 350 150 l 1,7,-1
 350 200 l 1,8,-1
 300 200 l 1,9,-1
 300 250 l 1,0,-1
300 550 m 1,10,-1
 200 550 l 1,11,-1
 200 450 l 1,12,-1
 300 450 l 1,13,-1
 300 550 l 1,10,-1
200 700 m 1,14,-1
 300 700 l 1,15,-1
 300 650 l 1,16,-1
 350 650 l 1,17,-1
 350 600 l 1,18,-1
 400 600 l 1,19,-1
 400 400 l 1,20,-1
 350 400 l 1,21,-1
 350 300 l 1,22,-1
 400 300 l 1,23,-1
 400 250 l 1,24,-1
 450 250 l 1,25,-1
 450 200 l 1,26,-1
 500 200 l 1,27,-1
 500 300 l 1,28,-1
 600 300 l 1,29,-1
 600 200 l 1,30,-1
 500 200 l 1,31,-1
 500 150 l 1,32,-1
 550 150 l 1,33,-1
 550 100 l 1,34,-1
 600 100 l 1,35,-1
 600 0 l 1,36,-1
 500 0 l 1,37,-1
 500 50 l 1,38,-1
 450 50 l 1,39,-1
 450 100 l 1,40,-1
 400 100 l 1,41,-1
 400 0 l 1,42,-1
 200 0 l 1,43,-1
 200 50 l 1,44,-1
 150 50 l 1,45,-1
 150 100 l 1,46,-1
 100 100 l 1,47,-1
 100 300 l 1,48,-1
 150 300 l 1,49,-1
 150 400 l 1,50,-1
 100 400 l 1,51,-1
 100 600 l 1,52,-1
 150 600 l 1,53,-1
 150 650 l 1,54,-1
 200 650 l 1,55,-1
 200 700 l 1,14,-1
EndSplineSet
Validated: 5
EndChar

StartChar: quotesingle
Encoding: 39 39 10
Width: 600
GlyphClass: 2
Flags: W
LayerCount: 2
Fore
SplineSet
300 700 m 1,0,-1
 400 700 l 1,1,-1
 400 400 l 1,2,-1
 300 400 l 1,3,-1
 300 700 l 1,0,-1
EndSplineSet
Validated: 1
EndChar

StartChar: parenleft
Encoding: 40 40 11
Width: 600
GlyphClass: 2
Flags: W
LayerCount: 2
Fore
SplineSet
400 700 m 1,0,-1
 500 700 l 1,1,-1
 500 600 l 1,2,-1
 450 600 l 1,3,-1
 450 550 l 1,4,-1
 400 550 l 1,5,-1
 400 500 l 1,6,-1
 350 500 l 1,7,-1
 350 450 l 1,8,-1
 300 450 l 1,9,-1
 300 250 l 1,10,-1
 350 250 l 1,11,-1
 350 200 l 1,12,-1
 400 200 l 1,13,-1
 400 150 l 1,14,-1
 450 150 l 1,15,-1
 450 100 l 1,16,-1
 500 100 l 1,17,-1
 500 0 l 1,18,-1
 400 0 l 1,19,-1
 400 50 l 1,20,-1
 350 50 l 1,21,-1
 350 100 l 1,22,-1
 300 100 l 1,23,-1
 300 150 l 1,24,-1
 250 150 l 1,25,-1
 250 200 l 1,26,-1
 200 200 l 1,27,-1
 200 500 l 1,28,-1
 250 500 l 1,29,-1
 250 550 l 1,30,-1
 300 550 l 1,31,-1
 300 600 l 1,32,-1
 350 600 l 1,33,-1
 350 650 l 1,34,-1
 400 650 l 1,35,-1
 400 700 l 1,0,-1
EndSplineSet
Validated: 1
EndChar

StartChar: parenright
Encoding: 41 41 12
Width: 600
GlyphClass: 2
Flags: W
LayerCount: 2
Fore
SplineSet
500 200 m 1,0,-1
 450 200 l 1,1,-1
 450 150 l 1,2,-1
 400 150 l 1,3,-1
 400 100 l 1,4,-1
 350 100 l 1,5,-1
 350 50 l 1,6,-1
 300 50 l 1,7,-1
 300 0 l 1,8,-1
 200 0 l 1,9,-1
 200 100 l 1,10,-1
 250 100 l 1,11,-1
 250 150 l 1,12,-1
 300 150 l 1,13,-1
 300 200 l 1,14,-1
 350 200 l 1,15,-1
 350 250 l 1,16,-1
 400 250 l 1,17,-1
 400 450 l 1,18,-1
 350 450 l 1,19,-1
 350 500 l 1,20,-1
 300 500 l 1,21,-1
 300 550 l 1,22,-1
 250 550 l 1,23,-1
 250 600 l 1,24,-1
 200 600 l 1,25,-1
 200 700 l 1,26,-1
 300 700 l 1,27,-1
 300 650 l 1,28,-1
 350 650 l 1,29,-1
 350 600 l 1,30,-1
 400 600 l 1,31,-1
 400 550 l 1,32,-1
 450 550 l 1,33,-1
 450 500 l 1,34,-1
 500 500 l 1,35,-1
 500 200 l 1,0,-1
EndSplineSet
Validated: 1
EndChar

StartChar: asterisk
Encoding: 42 42 13
Width: 600
GlyphClass: 2
Flags: W
LayerCount: 2
Fore
SplineSet
600 100 m 1,0,-1
 500 100 l 1,1,-1
 500 150 l 1,2,-1
 450 150 l 1,3,-1
 450 200 l 1,4,-1
 400 200 l 1,5,-1
 400 0 l 1,6,-1
 300 0 l 1,7,-1
 300 200 l 1,8,-1
 250 200 l 1,9,-1
 250 150 l 1,10,-1
 200 150 l 1,11,-1
 200 100 l 1,12,-1
 100 100 l 1,13,-1
 100 200 l 1,14,-1
 150 200 l 1,15,-1
 150 250 l 1,16,-1
 200 250 l 1,17,-1
 200 300 l 1,18,-1
 250 300 l 1,19,-1
 250 400 l 1,20,-1
 200 400 l 1,21,-1
 200 450 l 1,22,-1
 150 450 l 1,23,-1
 150 500 l 1,24,-1
 100 500 l 1,25,-1
 100 600 l 1,26,-1
 200 600 l 1,27,-1
 200 550 l 1,28,-1
 250 550 l 1,29,-1
 250 500 l 1,30,-1
 300 500 l 1,31,-1
 300 700 l 1,32,-1
 400 700 l 1,33,-1
 400 500 l 1,34,-1
 450 500 l 1,35,-1
 450 550 l 1,36,-1
 500 550 l 1,37,-1
 500 600 l 1,38,-1
 600 600 l 1,39,-1
 600 500 l 1,40,-1
 550 500 l 1,41,-1
 550 450 l 1,42,-1
 500 450 l 1,43,-1
 500 400 l 1,44,-1
 450 400 l 1,45,-1
 450 300 l 1,46,-1
 500 300 l 1,47,-1
 500 250 l 1,48,-1
 550 250 l 1,49,-1
 550 200 l 1,50,-1
 600 200 l 1,51,-1
 600 100 l 1,0,-1
EndSplineSet
Validated: 1
EndChar

StartChar: plus
Encoding: 43 43 14
Width: 600
GlyphClass: 2
Flags: W
LayerCount: 2
Fore
SplineSet
600 300 m 1,0,-1
 400 300 l 1,1,-1
 400 100 l 1,2,-1
 300 100 l 1,3,-1
 300 300 l 1,4,-1
 100 300 l 1,5,-1
 100 400 l 1,6,-1
 300 400 l 1,7,-1
 300 600 l 1,8,-1
 400 600 l 1,9,-1
 400 400 l 1,10,-1
 600 400 l 1,11,-1
 600 300 l 1,0,-1
EndSplineSet
Validated: 1
EndChar

StartChar: comma
Encoding: 44 44 15
Width: 600
GlyphClass: 2
Flags: W
LayerCount: 2
Fore
SplineSet
200 100 m 1,0,-1
 250 100 l 1,1,-1
 250 150 l 1,2,-1
 300 150 l 1,3,-1
 300 300 l 1,4,-1
 400 300 l 1,5,-1
 400 100 l 1,6,-1
 350 100 l 1,7,-1
 350 50 l 1,8,-1
 300 50 l 1,9,-1
 300 0 l 1,10,-1
 200 0 l 1,11,-1
 200 100 l 1,0,-1
EndSplineSet
Validated: 1
EndChar

StartChar: hyphen
Encoding: 45 45 16
AltUni2: 002010.ffffffff.0
Width: 600
GlyphClass: 2
Flags: W
LayerCount: 2
Fore
SplineSet
600 300 m 1,0,-1
 100 300 l 1,1,-1
 100 400 l 1,2,-1
 600 400 l 1,3,-1
 600 300 l 1,0,-1
EndSplineSet
Validated: 1
EndChar

StartChar: period
Encoding: 46 46 17
Width: 600
GlyphClass: 2
Flags: W
LayerCount: 2
Fore
SplineSet
300 100 m 1,0,-1
 400 100 l 1,1,-1
 400 0 l 1,2,-1
 300 0 l 1,3,-1
 300 100 l 1,0,-1
EndSplineSet
Validated: 1
EndChar

StartChar: slash
Encoding: 47 47 18
Width: 600
GlyphClass: 2
Flags: W
LayerCount: 2
Fore
SplineSet
600 500 m 1,0,-1
 550 500 l 1,1,-1
 550 450 l 1,2,-1
 500 450 l 1,3,-1
 500 400 l 1,4,-1
 450 400 l 1,5,-1
 450 350 l 1,6,-1
 400 350 l 1,7,-1
 400 300 l 1,8,-1
 350 300 l 1,9,-1
 350 250 l 1,10,-1
 300 250 l 1,11,-1
 300 200 l 1,12,-1
 250 200 l 1,13,-1
 250 150 l 1,14,-1
 200 150 l 1,15,-1
 200 100 l 1,16,-1
 100 100 l 1,17,-1
 100 200 l 1,18,-1
 150 200 l 1,19,-1
 150 250 l 1,20,-1
 200 250 l 1,21,-1
 200 300 l 1,22,-1
 250 300 l 1,23,-1
 250 350 l 1,24,-1
 300 350 l 1,25,-1
 300 400 l 1,26,-1
 350 400 l 1,27,-1
 350 450 l 1,28,-1
 400 450 l 1,29,-1
 400 500 l 1,30,-1
 450 500 l 1,31,-1
 450 550 l 1,32,-1
 500 550 l 1,33,-1
 500 600 l 1,34,-1
 600 600 l 1,35,-1
 600 500 l 1,0,-1
EndSplineSet
Validated: 1
EndChar

StartChar: zero
Encoding: 48 48 19
Width: 600
GlyphClass: 2
Flags: W
LayerCount: 2
Fore
SplineSet
450 500 m 1,0,-1
 400 500 l 1,1,-1
 400 550 l 1,2,-1
 300 550 l 1,3,-1
 300 500 l 1,4,-1
 250 500 l 1,5,-1
 250 450 l 1,6,-1
 200 450 l 1,7,-1
 200 250 l 1,8,-1
 250 250 l 1,9,-1
 250 200 l 1,10,-1
 300 200 l 1,11,-1
 300 150 l 1,12,-1
 400 150 l 1,13,-1
 400 200 l 1,14,-1
 450 200 l 1,15,-1
 450 250 l 1,16,-1
 500 250 l 1,17,-1
 500 450 l 1,18,-1
 450 450 l 1,19,-1
 450 500 l 1,0,-1
450 600 m 1,20,-1
 500 600 l 1,21,-1
 500 550 l 1,22,-1
 550 550 l 1,23,-1
 550 500 l 1,24,-1
 600 500 l 1,25,-1
 600 200 l 1,26,-1
 550 200 l 1,27,-1
 550 150 l 1,28,-1
 500 150 l 1,29,-1
 500 100 l 1,30,-1
 450 100 l 1,31,-1
 450 50 l 1,32,-1
 400 50 l 1,33,-1
 400 0 l 1,34,-1
 300 0 l 1,35,-1
 300 50 l 1,36,-1
 250 50 l 1,37,-1
 250 100 l 1,38,-1
 200 100 l 1,39,-1
 200 150 l 1,40,-1
 150 150 l 1,41,-1
 150 200 l 1,42,-1
 100 200 l 1,43,-1
 100 500 l 1,44,-1
 150 500 l 1,45,-1
 150 550 l 1,46,-1
 200 550 l 1,47,-1
 200 600 l 1,48,-1
 250 600 l 1,49,-1
 250 650 l 1,50,-1
 300 650 l 1,51,-1
 300 700 l 1,52,-1
 400 700 l 1,53,-1
 400 650 l 1,54,-1
 450 650 l 1,55,-1
 450 600 l 1,20,-1
EndSplineSet
Validated: 1
EndChar

StartChar: one
Encoding: 49 49 20
Width: 600
GlyphClass: 2
Flags: W
LayerCount: 2
Fore
SplineSet
250 650 m 1,0,-1
 300 650 l 1,1,-1
 300 700 l 1,2,-1
 400 700 l 1,3,-1
 400 100 l 1,4,-1
 500 100 l 1,5,-1
 500 0 l 1,6,-1
 200 0 l 1,7,-1
 200 100 l 1,8,-1
 300 100 l 1,9,-1
 300 500 l 1,10,-1
 200 500 l 1,11,-1
 200 600 l 1,12,-1
 250 600 l 1,13,-1
 250 650 l 1,0,-1
EndSplineSet
Validated: 1
EndChar

StartChar: two
Encoding: 50 50 21
Width: 600
GlyphClass: 2
Flags: W
LayerCount: 2
Fore
SplineSet
150 650 m 1,0,-1
 200 650 l 1,1,-1
 200 700 l 1,2,-1
 500 700 l 1,3,-1
 500 650 l 1,4,-1
 550 650 l 1,5,-1
 550 600 l 1,6,-1
 600 600 l 1,7,-1
 600 400 l 1,8,-1
 550 400 l 1,9,-1
 550 350 l 1,10,-1
 500 350 l 1,11,-1
 500 300 l 1,12,-1
 350 300 l 1,13,-1
 350 250 l 1,14,-1
 300 250 l 1,15,-1
 300 200 l 1,16,-1
 250 200 l 1,17,-1
 250 150 l 1,18,-1
 200 150 l 1,19,-1
 200 100 l 1,20,-1
 600 100 l 1,21,-1
 600 0 l 1,22,-1
 100 0 l 1,23,-1
 100 200 l 1,24,-1
 150 200 l 1,25,-1
 150 250 l 1,26,-1
 200 250 l 1,27,-1
 200 300 l 1,28,-1
 250 300 l 1,29,-1
 250 350 l 1,30,-1
 300 350 l 1,31,-1
 300 400 l 1,32,-1
 450 400 l 1,33,-1
 450 450 l 1,34,-1
 500 450 l 1,35,-1
 500 550 l 1,36,-1
 450 550 l 1,37,-1
 450 600 l 1,38,-1
 250 600 l 1,39,-1
 250 550 l 1,40,-1
 200 550 l 1,41,-1
 200 500 l 1,42,-1
 100 500 l 1,43,-1
 100 600 l 1,44,-1
 150 600 l 1,45,-1
 150 650 l 1,0,-1
EndSplineSet
Validated: 1
EndChar

StartChar: three
Encoding: 51 51 22
Width: 600
GlyphClass: 2
Flags: W
LayerCount: 2
Fore
SplineSet
600 100 m 1,0,-1
 550 100 l 1,1,-1
 550 50 l 1,2,-1
 500 50 l 1,3,-1
 500 0 l 1,4,-1
 200 0 l 1,5,-1
 200 50 l 1,6,-1
 150 50 l 1,7,-1
 150 100 l 1,8,-1
 100 100 l 1,9,-1
 100 200 l 1,10,-1
 200 200 l 1,11,-1
 200 150 l 1,12,-1
 250 150 l 1,13,-1
 250 100 l 1,14,-1
 450 100 l 1,15,-1
 450 150 l 1,16,-1
 500 150 l 1,17,-1
 500 250 l 1,18,-1
 450 250 l 1,19,-1
 450 300 l 1,20,-1
 300 300 l 1,21,-1
 300 400 l 1,22,-1
 350 400 l 1,23,-1
 350 450 l 1,24,-1
 400 450 l 1,25,-1
 400 500 l 1,26,-1
 450 500 l 1,27,-1
 450 550 l 1,28,-1
 500 550 l 1,29,-1
 500 600 l 1,30,-1
 100 600 l 1,31,-1
 100 700 l 1,32,-1
 600 700 l 1,33,-1
 600 500 l 1,34,-1
 550 500 l 1,35,-1
 550 450 l 1,36,-1
 500 450 l 1,37,-1
 500 350 l 1,38,-1
 550 350 l 1,39,-1
 550 300 l 1,40,-1
 600 300 l 1,41,-1
 600 100 l 1,0,-1
EndSplineSet
Validated: 1
EndChar

StartChar: four
Encoding: 52 52 23
Width: 600
GlyphClass: 2
Flags: W
LayerCount: 2
Fore
SplineSet
400 500 m 1,0,-1
 350 500 l 1,1,-1
 350 450 l 1,2,-1
 300 450 l 1,3,-1
 300 400 l 1,4,-1
 250 400 l 1,5,-1
 250 350 l 1,6,-1
 200 350 l 1,7,-1
 200 300 l 1,8,-1
 400 300 l 1,9,-1
 400 500 l 1,0,-1
350 650 m 1,10,-1
 400 650 l 1,11,-1
 400 700 l 1,12,-1
 500 700 l 1,13,-1
 500 300 l 1,14,-1
 600 300 l 1,15,-1
 600 200 l 1,16,-1
 500 200 l 1,17,-1
 500 0 l 1,18,-1
 400 0 l 1,19,-1
 400 200 l 1,20,-1
 100 200 l 1,21,-1
 100 400 l 1,22,-1
 150 400 l 1,23,-1
 150 450 l 1,24,-1
 200 450 l 1,25,-1
 200 500 l 1,26,-1
 250 500 l 1,27,-1
 250 550 l 1,28,-1
 300 550 l 1,29,-1
 300 600 l 1,30,-1
 350 600 l 1,31,-1
 350 650 l 1,10,-1
EndSplineSet
Validated: 1
EndChar

StartChar: five
Encoding: 53 53 24
Width: 600
GlyphClass: 2
Flags: W
LayerCount: 2
Fore
SplineSet
600 700 m 1,0,-1
 600 600 l 1,1,-1
 200 600 l 1,2,-1
 200 500 l 1,3,-1
 500 500 l 1,4,-1
 500 450 l 1,5,-1
 550 450 l 1,6,-1
 550 400 l 1,7,-1
 600 400 l 1,8,-1
 600 100 l 1,9,-1
 550 100 l 1,10,-1
 550 50 l 1,11,-1
 500 50 l 1,12,-1
 500 0 l 1,13,-1
 200 0 l 1,14,-1
 200 50 l 1,15,-1
 150 50 l 1,16,-1
 150 100 l 1,17,-1
 100 100 l 1,18,-1
 100 200 l 1,19,-1
 200 200 l 1,20,-1
 200 150 l 1,21,-1
 250 150 l 1,22,-1
 250 100 l 1,23,-1
 450 100 l 1,24,-1
 450 150 l 1,25,-1
 500 150 l 1,26,-1
 500 350 l 1,27,-1
 450 350 l 1,28,-1
 450 400 l 1,29,-1
 100 400 l 1,30,-1
 100 700 l 1,31,-1
 600 700 l 1,0,-1
EndSplineSet
Validated: 1
EndChar

StartChar: six
Encoding: 54 54 25
Width: 600
GlyphClass: 2
Flags: W
LayerCount: 2
Fore
SplineSet
600 100 m 1,0,-1
 550 100 l 1,1,-1
 550 50 l 1,2,-1
 500 50 l 1,3,-1
 500 0 l 1,4,-1
 200 0 l 1,5,-1
 200 50 l 1,6,-1
 150 50 l 1,7,-1
 150 100 l 1,8,-1
 100 100 l 1,9,-1
 100 500 l 1,10,-1
 150 500 l 1,11,-1
 150 550 l 1,12,-1
 200 550 l 1,13,-1
 200 600 l 1,14,-1
 250 600 l 1,15,-1
 250 650 l 1,16,-1
 300 650 l 1,17,-1
 300 700 l 1,18,-1
 500 700 l 1,19,-1
 500 600 l 1,20,-1
 350 600 l 1,21,-1
 350 550 l 1,22,-1
 300 550 l 1,23,-1
 300 500 l 1,24,-1
 250 500 l 1,25,-1
 250 450 l 1,26,-1
 200 450 l 1,27,-1
 200 400 l 1,28,-1
 500 400 l 1,29,-1
 500 350 l 1,30,-1
 550 350 l 1,31,-1
 550 300 l 1,32,-1
 600 300 l 1,33,-1
 600 100 l 1,0,-1
500 150 m 1,34,-1
 500 250 l 1,35,-1
 450 250 l 1,36,-1
 450 300 l 1,37,-1
 200 300 l 1,38,-1
 200 150 l 1,39,-1
 250 150 l 1,40,-1
 250 100 l 1,41,-1
 450 100 l 1,42,-1
 450 150 l 1,43,-1
 500 150 l 1,34,-1
EndSplineSet
Validated: 1
EndChar

StartChar: seven
Encoding: 55 55 26
Width: 600
GlyphClass: 2
Flags: W
LayerCount: 2
Fore
SplineSet
600 500 m 1,0,-1
 550 500 l 1,1,-1
 550 450 l 1,2,-1
 500 450 l 1,3,-1
 500 400 l 1,4,-1
 450 400 l 1,5,-1
 450 350 l 1,6,-1
 400 350 l 1,7,-1
 400 300 l 1,8,-1
 350 300 l 1,9,-1
 350 250 l 1,10,-1
 300 250 l 1,11,-1
 300 0 l 1,12,-1
 200 0 l 1,13,-1
 200 300 l 1,14,-1
 250 300 l 1,15,-1
 250 350 l 1,16,-1
 300 350 l 1,17,-1
 300 400 l 1,18,-1
 350 400 l 1,19,-1
 350 450 l 1,20,-1
 400 450 l 1,21,-1
 400 500 l 1,22,-1
 450 500 l 1,23,-1
 450 550 l 1,24,-1
 500 550 l 1,25,-1
 500 600 l 1,26,-1
 100 600 l 1,27,-1
 100 700 l 1,28,-1
 600 700 l 1,29,-1
 600 500 l 1,0,-1
EndSplineSet
Validated: 1
EndChar

StartChar: eight
Encoding: 56 56 27
Width: 600
GlyphClass: 2
Flags: W
LayerCount: 2
Fore
SplineSet
600 100 m 1,0,-1
 550 100 l 1,1,-1
 550 50 l 1,2,-1
 500 50 l 1,3,-1
 500 0 l 1,4,-1
 200 0 l 1,5,-1
 200 50 l 1,6,-1
 150 50 l 1,7,-1
 150 100 l 1,8,-1
 100 100 l 1,9,-1
 100 300 l 1,10,-1
 150 300 l 1,11,-1
 150 400 l 1,12,-1
 100 400 l 1,13,-1
 100 600 l 1,14,-1
 150 600 l 1,15,-1
 150 650 l 1,16,-1
 200 650 l 1,17,-1
 200 700 l 1,18,-1
 500 700 l 1,19,-1
 500 650 l 1,20,-1
 550 650 l 1,21,-1
 550 600 l 1,22,-1
 600 600 l 1,23,-1
 600 400 l 1,24,-1
 550 400 l 1,25,-1
 550 300 l 1,26,-1
 600 300 l 1,27,-1
 600 100 l 1,0,-1
500 450 m 1,28,-1
 500 550 l 1,29,-1
 450 550 l 1,30,-1
 450 600 l 1,31,-1
 250 600 l 1,32,-1
 250 550 l 1,33,-1
 200 550 l 1,34,-1
 200 450 l 1,35,-1
 250 450 l 1,36,-1
 250 400 l 1,37,-1
 450 400 l 1,38,-1
 450 450 l 1,39,-1
 500 450 l 1,28,-1
500 150 m 1,40,-1
 500 250 l 1,41,-1
 450 250 l 1,42,-1
 450 300 l 1,43,-1
 250 300 l 1,44,-1
 250 250 l 1,45,-1
 200 250 l 1,46,-1
 200 150 l 1,47,-1
 250 150 l 1,48,-1
 250 100 l 1,49,-1
 450 100 l 1,50,-1
 450 150 l 1,51,-1
 500 150 l 1,40,-1
EndSplineSet
Validated: 1
EndChar

StartChar: nine
Encoding: 57 57 28
Width: 600
GlyphClass: 2
Flags: W
LayerCount: 2
Fore
SplineSet
500 300 m 1,0,-1
 200 300 l 1,1,-1
 200 350 l 1,2,-1
 150 350 l 1,3,-1
 150 400 l 1,4,-1
 100 400 l 1,5,-1
 100 600 l 1,6,-1
 150 600 l 1,7,-1
 150 650 l 1,8,-1
 200 650 l 1,9,-1
 200 700 l 1,10,-1
 500 700 l 1,11,-1
 500 650 l 1,12,-1
 550 650 l 1,13,-1
 550 600 l 1,14,-1
 600 600 l 1,15,-1
 600 200 l 1,16,-1
 550 200 l 1,17,-1
 550 150 l 1,18,-1
 500 150 l 1,19,-1
 500 100 l 1,20,-1
 450 100 l 1,21,-1
 450 50 l 1,22,-1
 400 50 l 1,23,-1
 400 0 l 1,24,-1
 200 0 l 1,25,-1
 200 100 l 1,26,-1
 350 100 l 1,27,-1
 350 150 l 1,28,-1
 400 150 l 1,29,-1
 400 200 l 1,30,-1
 450 200 l 1,31,-1
 450 250 l 1,32,-1
 500 250 l 1,33,-1
 500 300 l 1,0,-1
250 400 m 1,34,-1
 500 400 l 1,35,-1
 500 550 l 1,36,-1
 450 550 l 1,37,-1
 450 600 l 1,38,-1
 250 600 l 1,39,-1
 250 550 l 1,40,-1
 200 550 l 1,41,-1
 200 450 l 1,42,-1
 250 450 l 1,43,-1
 250 400 l 1,34,-1
EndSplineSet
Validated: 1
EndChar

StartChar: colon
Encoding: 58 58 29
Width: 600
GlyphClass: 2
Flags: W
LayerCount: 2
Fore
SplineSet
400 400 m 1,0,-1
 300 400 l 1,1,-1
 300 500 l 1,2,-1
 400 500 l 1,3,-1
 400 400 l 1,0,-1
400 100 m 1,4,-1
 300 100 l 1,5,-1
 300 200 l 1,6,-1
 400 200 l 1,7,-1
 400 100 l 1,4,-1
EndSplineSet
Validated: 1
EndChar

StartChar: semicolon
Encoding: 59 59 30
Width: 600
GlyphClass: 2
Flags: W
LayerCount: 2
Fore
SplineSet
400 400 m 1,0,-1
 300 400 l 1,1,-1
 300 500 l 1,2,-1
 400 500 l 1,3,-1
 400 400 l 1,0,-1
400 0 m 1,4,-1
 350 0 l 1,5,-1
 350 -50 l 1,6,-1
 300 -50 l 1,7,-1
 300 -100 l 1,8,-1
 200 -100 l 1,9,-1
 200 0 l 1,10,-1
 250 0 l 1,11,-1
 250 50 l 1,12,-1
 300 50 l 1,13,-1
 300 200 l 1,14,-1
 400 200 l 1,15,-1
 400 0 l 1,4,-1
EndSplineSet
Validated: 1
EndChar

StartChar: less
Encoding: 60 60 31
Width: 600
GlyphClass: 2
Flags: W
LayerCount: 2
Fore
SplineSet
500 0 m 1,0,-1
 400 0 l 1,1,-1
 400 50 l 1,2,-1
 350 50 l 1,3,-1
 350 100 l 1,4,-1
 300 100 l 1,5,-1
 300 150 l 1,6,-1
 250 150 l 1,7,-1
 250 200 l 1,8,-1
 200 200 l 1,9,-1
 200 250 l 1,10,-1
 150 250 l 1,11,-1
 150 300 l 1,12,-1
 100 300 l 1,13,-1
 100 400 l 1,14,-1
 150 400 l 1,15,-1
 150 450 l 1,16,-1
 200 450 l 1,17,-1
 200 500 l 1,18,-1
 250 500 l 1,19,-1
 250 550 l 1,20,-1
 300 550 l 1,21,-1
 300 600 l 1,22,-1
 350 600 l 1,23,-1
 350 650 l 1,24,-1
 400 650 l 1,25,-1
 400 700 l 1,26,-1
 500 700 l 1,27,-1
 500 600 l 1,28,-1
 450 600 l 1,29,-1
 450 550 l 1,30,-1
 400 550 l 1,31,-1
 400 500 l 1,32,-1
 350 500 l 1,33,-1
 350 450 l 1,34,-1
 300 450 l 1,35,-1
 300 400 l 1,36,-1
 250 400 l 1,37,-1
 250 300 l 1,38,-1
 300 300 l 1,39,-1
 300 250 l 1,40,-1
 350 250 l 1,41,-1
 350 200 l 1,42,-1
 400 200 l 1,43,-1
 400 150 l 1,44,-1
 450 150 l 1,45,-1
 450 100 l 1,46,-1
 500 100 l 1,47,-1
 500 0 l 1,0,-1
EndSplineSet
Validated: 1
EndChar

StartChar: equal
Encoding: 61 61 32
Width: 600
GlyphClass: 2
Flags: W
LayerCount: 2
Fore
SplineSet
600 400 m 1,0,-1
 100 400 l 1,1,-1
 100 500 l 1,2,-1
 600 500 l 1,3,-1
 600 400 l 1,0,-1
600 100 m 1,4,-1
 100 100 l 1,5,-1
 100 200 l 1,6,-1
 600 200 l 1,7,-1
 600 100 l 1,4,-1
EndSplineSet
Validated: 1
EndChar

StartChar: greater
Encoding: 62 62 33
Width: 600
GlyphClass: 2
Flags: W
LayerCount: 2
Fore
SplineSet
600 300 m 1,0,-1
 550 300 l 1,1,-1
 550 250 l 1,2,-1
 500 250 l 1,3,-1
 500 200 l 1,4,-1
 450 200 l 1,5,-1
 450 150 l 1,6,-1
 400 150 l 1,7,-1
 400 100 l 1,8,-1
 350 100 l 1,9,-1
 350 50 l 1,10,-1
 300 50 l 1,11,-1
 300 0 l 1,12,-1
 200 0 l 1,13,-1
 200 100 l 1,14,-1
 250 100 l 1,15,-1
 250 150 l 1,16,-1
 300 150 l 1,17,-1
 300 200 l 1,18,-1
 350 200 l 1,19,-1
 350 250 l 1,20,-1
 400 250 l 1,21,-1
 400 300 l 1,22,-1
 450 300 l 1,23,-1
 450 400 l 1,24,-1
 400 400 l 1,25,-1
 400 450 l 1,26,-1
 350 450 l 1,27,-1
 350 500 l 1,28,-1
 300 500 l 1,29,-1
 300 550 l 1,30,-1
 250 550 l 1,31,-1
 250 600 l 1,32,-1
 200 600 l 1,33,-1
 200 700 l 1,34,-1
 300 700 l 1,35,-1
 300 650 l 1,36,-1
 350 650 l 1,37,-1
 350 600 l 1,38,-1
 400 600 l 1,39,-1
 400 550 l 1,40,-1
 450 550 l 1,41,-1
 450 500 l 1,42,-1
 500 500 l 1,43,-1
 500 450 l 1,44,-1
 550 450 l 1,45,-1
 550 400 l 1,46,-1
 600 400 l 1,47,-1
 600 300 l 1,0,-1
EndSplineSet
Validated: 1
EndChar

StartChar: question
Encoding: 63 63 34
Width: 600
GlyphClass: 2
Flags: W
LayerCount: 2
Fore
SplineSet
300 400 m 1,0,-1
 350 400 l 1,1,-1
 350 450 l 1,2,-1
 400 450 l 1,3,-1
 400 500 l 1,4,-1
 450 500 l 1,5,-1
 450 600 l 1,6,-1
 250 600 l 1,7,-1
 250 550 l 1,8,-1
 200 550 l 1,9,-1
 200 500 l 1,10,-1
 100 500 l 1,11,-1
 100 600 l 1,12,-1
 150 600 l 1,13,-1
 150 650 l 1,14,-1
 200 650 l 1,15,-1
 200 700 l 1,16,-1
 500 700 l 1,17,-1
 500 650 l 1,18,-1
 550 650 l 1,19,-1
 550 600 l 1,20,-1
 600 600 l 1,21,-1
 600 500 l 1,22,-1
 550 500 l 1,23,-1
 550 450 l 1,24,-1
 500 450 l 1,25,-1
 500 400 l 1,26,-1
 450 400 l 1,27,-1
 450 350 l 1,28,-1
 400 350 l 1,29,-1
 400 200 l 1,30,-1
 300 200 l 1,31,-1
 300 400 l 1,0,-1
300 100 m 1,32,-1
 400 100 l 1,33,-1
 400 0 l 1,34,-1
 300 0 l 1,35,-1
 300 100 l 1,32,-1
EndSplineSet
Validated: 1
EndChar

StartChar: at
Encoding: 64 64 35
Width: 600
GlyphClass: 2
Flags: W
LayerCount: 2
Fore
SplineSet
500 400 m 1,0,-1
 400 400 l 1,1,-1
 400 300 l 1,2,-1
 500 300 l 1,3,-1
 500 400 l 1,0,-1
350 500 m 1,4,-1
 500 500 l 1,5,-1
 500 550 l 1,6,-1
 450 550 l 1,7,-1
 450 600 l 1,8,-1
 250 600 l 1,9,-1
 250 550 l 1,10,-1
 200 550 l 1,11,-1
 200 150 l 1,12,-1
 250 150 l 1,13,-1
 250 100 l 1,14,-1
 500 100 l 1,15,-1
 500 0 l 1,16,-1
 200 0 l 1,17,-1
 200 50 l 1,18,-1
 150 50 l 1,19,-1
 150 100 l 1,20,-1
 100 100 l 1,21,-1
 100 600 l 1,22,-1
 150 600 l 1,23,-1
 150 650 l 1,24,-1
 200 650 l 1,25,-1
 200 700 l 1,26,-1
 500 700 l 1,27,-1
 500 650 l 1,28,-1
 550 650 l 1,29,-1
 550 600 l 1,30,-1
 600 600 l 1,31,-1
 600 250 l 1,32,-1
 550 250 l 1,33,-1
 550 200 l 1,34,-1
 350 200 l 1,35,-1
 350 250 l 1,36,-1
 300 250 l 1,37,-1
 300 450 l 1,38,-1
 350 450 l 1,39,-1
 350 500 l 1,4,-1
EndSplineSet
Validated: 1
EndChar

StartChar: A
Encoding: 65 65 36
Width: 600
GlyphClass: 2
Flags: W
LayerCount: 2
Fore
SplineSet
200 450 m 1,0,-1
 200 300 l 1,1,-1
 500 300 l 1,2,-1
 500 450 l 1,3,-1
 450 450 l 1,4,-1
 450 500 l 1,5,-1
 400 500 l 1,6,-1
 400 550 l 1,7,-1
 300 550 l 1,8,-1
 300 500 l 1,9,-1
 250 500 l 1,10,-1
 250 450 l 1,11,-1
 200 450 l 1,0,-1
600 0 m 1,12,-1
 500 0 l 1,13,-1
 500 200 l 1,14,-1
 200 200 l 1,15,-1
 200 0 l 1,16,-1
 100 0 l 1,17,-1
 100 500 l 1,18,-1
 150 500 l 1,19,-1
 150 550 l 1,20,-1
 200 550 l 1,21,-1
 200 600 l 1,22,-1
 250 600 l 1,23,-1
 250 650 l 1,24,-1
 300 650 l 1,25,-1
 300 700 l 1,26,-1
 400 700 l 1,27,-1
 400 650 l 1,28,-1
 450 650 l 1,29,-1
 450 600 l 1,30,-1
 500 600 l 1,31,-1
 500 550 l 1,32,-1
 550 550 l 1,33,-1
 550 500 l 1,34,-1
 600 500 l 1,35,-1
 600 0 l 1,12,-1
EndSplineSet
Validated: 1
EndChar

StartChar: B
Encoding: 66 66 37
Width: 600
GlyphClass: 2
Flags: W
LayerCount: 2
Fore
SplineSet
500 450 m 1,0,-1
 500 550 l 1,1,-1
 450 550 l 1,2,-1
 450 600 l 1,3,-1
 200 600 l 1,4,-1
 200 396 l 1,5,-1
 450 400 l 1,6,-1
 450 450 l 1,7,-1
 500 450 l 1,0,-1
500 50 m 1,8,-1
 500 0 l 1,9,-1
 100 0 l 1,10,-1
 100 700 l 1,11,-1
 500 700 l 1,12,-1
 500 650 l 1,13,-1
 550 650 l 1,14,-1
 550 600 l 1,15,-1
 600 600 l 1,16,-1
 600 400 l 1,17,-1
 550 400 l 1,18,-1
 550 300 l 1,19,-1
 600 300 l 1,20,-1
 600 100 l 1,21,-1
 550 100 l 1,22,-1
 550 50 l 1,23,-1
 500 50 l 1,8,-1
450 100 m 1,24,-1
 450 150 l 1,25,-1
 500 150 l 1,26,-1
 500 250 l 1,27,-1
 450 250 l 1,28,-1
 450 300 l 1,29,-1
 200 300 l 1,30,-1
 200 100 l 1,31,-1
 450 100 l 1,24,-1
EndSplineSet
Validated: 1
EndChar

StartChar: C
Encoding: 67 67 38
Width: 600
GlyphClass: 2
Flags: W
LayerCount: 2
Fore
SplineSet
500 650 m 1,0,-1
 550 650 l 1,1,-1
 550 600 l 1,2,-1
 600 600 l 1,3,-1
 600 500 l 1,4,-1
 500 500 l 1,5,-1
 500 550 l 1,6,-1
 450 550 l 1,7,-1
 450 600 l 1,8,-1
 250 598 l 1,9,-1
 250 550 l 1,10,-1
 200 550 l 1,11,-1
 200 150 l 1,12,-1
 250 150 l 1,13,-1
 250 100 l 1,14,-1
 450 100 l 1,15,-1
 450 150 l 1,16,-1
 500 150 l 1,17,-1
 500 200 l 1,18,-1
 600 200 l 1,19,-1
 600 100 l 1,20,-1
 550 100 l 1,21,-1
 550 50 l 1,22,-1
 500 50 l 1,23,-1
 500 0 l 1,24,-1
 200 0 l 1,25,-1
 200 50 l 1,26,-1
 150 50 l 1,27,-1
 150 100 l 1,28,-1
 100 100 l 1,29,-1
 100 600 l 1,30,-1
 150 600 l 1,31,-1
 150 650 l 1,32,-1
 200 650 l 1,33,-1
 200 700 l 1,34,-1
 500 700 l 1,35,-1
 500 650 l 1,0,-1
EndSplineSet
Validated: 1
EndChar

StartChar: D
Encoding: 68 68 39
Width: 600
GlyphClass: 2
Flags: W
LayerCount: 2
Fore
SplineSet
450 150 m 1,0,-1
 500 150 l 1,1,-1
 500 550 l 1,2,-1
 450 550 l 1,3,-1
 450 600 l 1,4,-1
 200 600 l 1,5,-1
 200 100 l 1,6,-1
 450 100 l 1,7,-1
 450 150 l 1,0,-1
500 650 m 1,8,-1
 550 650 l 1,9,-1
 550 600 l 1,10,-1
 600 600 l 1,11,-1
 600 100 l 1,12,-1
 550 100 l 1,13,-1
 550 50 l 1,14,-1
 500 50 l 1,15,-1
 500 0 l 1,16,-1
 100 0 l 1,17,-1
 100 700 l 1,18,-1
 500 700 l 1,19,-1
 500 650 l 1,8,-1
EndSplineSet
Validated: 1
EndChar

StartChar: E
Encoding: 69 69 40
Width: 600
GlyphClass: 2
Flags: W
LayerCount: 2
Fore
SplineSet
600 0 m 1,0,-1
 100 0 l 1,1,-1
 100 700 l 1,2,-1
 600 700 l 1,3,-1
 600 600 l 1,4,-1
 200 600 l 1,5,-1
 200 396 l 1,6,-1
 500 396 l 1,7,-1
 500 300 l 1,8,-1
 200 300 l 1,9,-1
 200 100 l 1,10,-1
 600 100 l 1,11,-1
 600 0 l 1,0,-1
EndSplineSet
Validated: 1
EndChar

StartChar: F
Encoding: 70 70 41
Width: 600
GlyphClass: 2
Flags: W
LayerCount: 2
Fore
SplineSet
600 600 m 1,0,-1
 200 600 l 1,1,-1
 200 396 l 1,2,-1
 500 396 l 1,3,-1
 500 300 l 1,4,-1
 200 300 l 1,5,-1
 200 0 l 1,6,-1
 100 0 l 1,7,-1
 100 700 l 1,8,-1
 600 700 l 1,9,-1
 600 600 l 1,0,-1
EndSplineSet
Validated: 1
EndChar

StartChar: G
Encoding: 71 71 42
Width: 600
GlyphClass: 2
Flags: W
LayerCount: 2
Fore
SplineSet
200 175 m 1,0,-1
 225 175 l 1,1,-1
 225 125 l 1,2,-1
 275 125 l 1,3,-1
 275 100 l 1,4,-1
 500 100 l 1,5,-1
 500 200 l 1,6,-1
 400 200 l 1,7,-1
 400 300 l 1,8,-1
 600 300 l 1,9,-1
 600 0 l 1,10,-1
 200 0 l 1,11,-1
 200 50 l 1,12,-1
 150 50 l 1,13,-1
 150 100 l 1,14,-1
 100 100 l 1,15,-1
 100 600 l 1,16,-1
 150 600 l 1,17,-1
 150 650 l 1,18,-1
 200 650 l 1,19,-1
 200 700 l 1,20,-1
 500 700 l 1,21,-1
 500 650 l 1,22,-1
 550 650 l 1,23,-1
 550 600 l 1,24,-1
 600 600 l 1,25,-1
 600 500 l 1,26,-1
 500 500 l 1,27,-1
 500 550 l 1,28,-1
 450 550 l 1,29,-1
 450 600 l 1,30,-1
 250 600 l 1,31,-1
 250 550 l 1,32,-1
 200 550 l 1,33,-1
 200 175 l 1,0,-1
EndSplineSet
Validated: 1
EndChar

StartChar: H
Encoding: 72 72 43
Width: 600
GlyphClass: 2
Flags: W
LayerCount: 2
Fore
SplineSet
600 0 m 1,0,-1
 500 0 l 1,1,-1
 500 300 l 1,2,-1
 200 300 l 1,3,-1
 200 0 l 1,4,-1
 100 0 l 1,5,-1
 100 700 l 1,6,-1
 200 700 l 1,7,-1
 200 400 l 1,8,-1
 500 400 l 1,9,-1
 500 700 l 1,10,-1
 600 700 l 1,11,-1
 600 0 l 1,0,-1
EndSplineSet
Validated: 1
EndChar

StartChar: I
Encoding: 73 73 44
Width: 600
GlyphClass: 2
Flags: W
LayerCount: 2
Fore
SplineSet
400 600 m 1,0,-1
 400 100 l 1,1,-1
 500 100 l 1,2,-1
 500 0 l 1,3,-1
 200 0 l 1,4,-1
 200 100 l 1,5,-1
 300 100 l 1,6,-1
 300 600 l 1,7,-1
 200 600 l 1,8,-1
 200 700 l 1,9,-1
 500 700 l 1,10,-1
 500 600 l 1,11,-1
 400 600 l 1,0,-1
EndSplineSet
Validated: 1
EndChar

StartChar: J
Encoding: 74 74 45
Width: 600
GlyphClass: 2
Flags: W
LayerCount: 2
Fore
SplineSet
500 700 m 1,0,-1
 600 700 l 1,1,-1
 600 100 l 1,2,-1
 550 100 l 1,3,-1
 550 50 l 1,4,-1
 500 50 l 1,5,-1
 500 0 l 1,6,-1
 200 0 l 1,7,-1
 200 50 l 1,8,-1
 150 50 l 1,9,-1
 150 100 l 1,10,-1
 100 100 l 1,11,-1
 100 200 l 1,12,-1
 200 200 l 1,13,-1
 200 150 l 1,14,-1
 250 150 l 1,15,-1
 250 100 l 1,16,-1
 450 100 l 1,17,-1
 450 150 l 1,18,-1
 500 150 l 1,19,-1
 500 700 l 1,0,-1
EndSplineSet
Validated: 1
EndChar

StartChar: K
Encoding: 75 75 46
Width: 600
GlyphClass: 2
Flags: W
LayerCount: 2
Fore
SplineSet
500 150 m 1,0,-1
 550 150 l 1,1,-1
 550 100 l 1,2,-1
 600 100 l 1,3,-1
 600 0 l 1,4,-1
 500 0 l 1,5,-1
 500 50 l 1,6,-1
 450 50 l 1,7,-1
 450 100 l 1,8,-1
 400 100 l 1,9,-1
 400 150 l 1,10,-1
 350 150 l 1,11,-1
 350 200 l 1,12,-1
 300 200 l 1,13,-1
 300 250 l 1,14,-1
 250 250 l 1,15,-1
 250 300 l 1,16,-1
 200 300 l 1,17,-1
 200 0 l 1,18,-1
 100 0 l 1,19,-1
 100 700 l 1,20,-1
 200 700 l 1,21,-1
 200 400 l 1,22,-1
 250 400 l 1,23,-1
 250 450 l 1,24,-1
 300 450 l 1,25,-1
 300 500 l 1,26,-1
 350 500 l 1,27,-1
 350 550 l 1,28,-1
 400 550 l 1,29,-1
 400 600 l 1,30,-1
 450 600 l 1,31,-1
 450 650 l 1,32,-1
 500 650 l 1,33,-1
 500 700 l 1,34,-1
 600 700 l 1,35,-1
 600 600 l 1,36,-1
 550 600 l 1,37,-1
 550 550 l 1,38,-1
 500 550 l 1,39,-1
 500 500 l 1,40,-1
 450 500 l 1,41,-1
 450 450 l 1,42,-1
 400 450 l 1,43,-1
 400 400 l 1,44,-1
 350 400 l 1,45,-1
 350 300 l 1,46,-1
 400 300 l 1,47,-1
 400 250 l 1,48,-1
 450 250 l 1,49,-1
 450 200 l 1,50,-1
 500 200 l 1,51,-1
 500 150 l 1,0,-1
EndSplineSet
Validated: 1
EndChar

StartChar: L
Encoding: 76 76 47
Width: 600
GlyphClass: 2
Flags: W
LayerCount: 2
Fore
SplineSet
600 0 m 1,0,-1
 100 0 l 1,1,-1
 100 700 l 1,2,-1
 200 700 l 1,3,-1
 200 100 l 1,4,-1
 600 100 l 1,5,-1
 600 0 l 1,0,-1
EndSplineSet
Validated: 1
EndChar

StartChar: M
Encoding: 77 77 48
Width: 600
GlyphClass: 2
Flags: W
LayerCount: 2
Fore
SplineSet
500 700 m 1,0,-1
 600 700 l 1,1,-1
 600 0 l 1,2,-1
 500 0 l 1,3,-1
 500 500 l 1,4,-1
 450 500 l 1,5,-1
 450 450 l 1,6,-1
 400 450 l 1,7,-1
 400 400 l 1,8,-1
 300 400 l 1,9,-1
 300 450 l 1,10,-1
 250 450 l 1,11,-1
 250 500 l 1,12,-1
 200 500 l 1,13,-1
 200 0 l 1,14,-1
 100 0 l 1,15,-1
 100 700 l 1,16,-1
 200 700 l 1,17,-1
 200 650 l 1,18,-1
 250 650 l 1,19,-1
 250 600 l 1,20,-1
 300 600 l 1,21,-1
 300 550 l 1,22,-1
 400 550 l 1,23,-1
 400 600 l 1,24,-1
 450 600 l 1,25,-1
 450 650 l 1,26,-1
 500 650 l 1,27,-1
 500 700 l 1,0,-1
EndSplineSet
Validated: 1
EndChar

StartChar: N
Encoding: 78 78 49
Width: 600
GlyphClass: 2
Flags: W
LayerCount: 2
Fore
SplineSet
600 0 m 1,0,-1
 500 0 l 1,1,-1
 500 150 l 1,2,-1
 450 150 l 1,3,-1
 450 200 l 1,4,-1
 400 200 l 1,5,-1
 400 250 l 1,6,-1
 350 250 l 1,7,-1
 350 300 l 1,8,-1
 300 300 l 1,9,-1
 300 350 l 1,10,-1
 250 350 l 1,11,-1
 250 400 l 1,12,-1
 200 400 l 1,13,-1
 200 0 l 1,14,-1
 100 0 l 1,15,-1
 100 700 l 1,16,-1
 200 700 l 1,17,-1
 200 550 l 1,18,-1
 250 550 l 1,19,-1
 250 500 l 1,20,-1
 300 500 l 1,21,-1
 300 450 l 1,22,-1
 350 450 l 1,23,-1
 350 400 l 1,24,-1
 400 400 l 1,25,-1
 400 350 l 1,26,-1
 450 350 l 1,27,-1
 450 300 l 1,28,-1
 500 300 l 1,29,-1
 500 700 l 1,30,-1
 600 700 l 1,31,-1
 600 0 l 1,0,-1
EndSplineSet
Validated: 1
EndChar

StartChar: O
Encoding: 79 79 50
Width: 600
GlyphClass: 2
Flags: W
LayerCount: 2
Fore
SplineSet
200 50 m 1,0,-1
 150 50 l 1,1,-1
 150 100 l 1,2,-1
 100 100 l 1,3,-1
 100 600 l 1,4,-1
 150 600 l 1,5,-1
 150 650 l 1,6,-1
 200 650 l 1,7,-1
 200 700 l 1,8,-1
 500 700 l 1,9,-1
 500 650 l 1,10,-1
 550 650 l 1,11,-1
 550 600 l 1,12,-1
 600 600 l 1,13,-1
 600 100 l 1,14,-1
 550 100 l 1,15,-1
 550 50 l 1,16,-1
 500 50 l 1,17,-1
 500 0 l 1,18,-1
 200 0 l 1,19,-1
 200 50 l 1,0,-1
200 150 m 1,20,-1
 250 150 l 1,21,-1
 250 100 l 1,22,-1
 450 100 l 1,23,-1
 450 150 l 1,24,-1
 500 150 l 1,25,-1
 500 550 l 1,26,-1
 450 550 l 1,27,-1
 450 600 l 1,28,-1
 250 600 l 1,29,-1
 250 550 l 1,30,-1
 200 550 l 1,31,-1
 200 150 l 1,20,-1
EndSplineSet
Validated: 1
EndChar

StartChar: P
Encoding: 80 80 51
Width: 600
GlyphClass: 2
Flags: W
LayerCount: 2
Fore
SplineSet
450 600 m 1,0,-1
 200 600 l 1,1,-1
 200 400 l 1,2,-1
 450 400 l 1,3,-1
 450 450 l 1,4,-1
 500 450 l 1,5,-1
 500 550 l 1,6,-1
 450 550 l 1,7,-1
 450 600 l 1,0,-1
500 700 m 1,8,-1
 500 650 l 1,9,-1
 550 650 l 1,10,-1
 550 600 l 1,11,-1
 600 600 l 1,12,-1
 600 400 l 1,13,-1
 550 400 l 1,14,-1
 550 350 l 1,15,-1
 500 350 l 1,16,-1
 500 300 l 1,17,-1
 200 300 l 1,18,-1
 200 0 l 1,19,-1
 100 0 l 1,20,-1
 100 700 l 1,21,-1
 500 700 l 1,8,-1
EndSplineSet
Validated: 1
EndChar

StartChar: Q
Encoding: 81 81 52
Width: 600
GlyphClass: 2
Flags: W
LayerCount: 2
Fore
SplineSet
500 200 m 1,0,-1
 500 150 l 1,1,-1
 550 150 l 1,2,-1
 550 100 l 1,3,-1
 600 100 l 1,4,-1
 600 0 l 1,5,-1
 500 0 l 1,6,-1
 500 50 l 1,7,-1
 450 50 l 1,8,-1
 450 100 l 1,9,-1
 400 100 l 1,10,-1
 400 0 l 1,11,-1
 200 0 l 1,12,-1
 200 50 l 1,13,-1
 150 50 l 1,14,-1
 150 100 l 1,15,-1
 100 100 l 1,16,-1
 100 600 l 1,17,-1
 150 600 l 1,18,-1
 150 650 l 1,19,-1
 200 650 l 1,20,-1
 200 700 l 1,21,-1
 500 700 l 1,22,-1
 500 650 l 1,23,-1
 550 650 l 1,24,-1
 550 600 l 1,25,-1
 600 600 l 1,26,-1
 600 200 l 1,27,-1
 500 200 l 1,0,-1
400 250 m 1,28,-1
 450 250 l 1,29,-1
 450 200 l 1,30,-1
 500 200 l 1,31,-1
 500 550 l 1,32,-1
 450 550 l 1,33,-1
 450 600 l 1,34,-1
 250 600 l 1,35,-1
 250 550 l 1,36,-1
 200 550 l 1,37,-1
 200 150 l 1,38,-1
 250 150 l 1,39,-1
 250 100 l 1,40,-1
 400 100 l 1,41,-1
 400 150 l 1,42,-1
 350 150 l 1,43,-1
 350 200 l 1,44,-1
 300 200 l 1,45,-1
 300 300 l 1,46,-1
 400 300 l 1,47,-1
 400 250 l 1,28,-1
EndSplineSet
Validated: 5
EndChar

StartChar: R
Encoding: 82 82 53
Width: 600
GlyphClass: 2
Flags: W
LayerCount: 2
Fore
SplineSet
200 400 m 1,0,-1
 450 400 l 1,1,-1
 450 450 l 1,2,-1
 500 450 l 1,3,-1
 500 550 l 1,4,-1
 450 550 l 1,5,-1
 450 600 l 1,6,-1
 200 600 l 1,7,-1
 200 400 l 1,0,-1
550 100 m 1,8,-1
 600 100 l 1,9,-1
 600 0 l 1,10,-1
 500 0 l 1,11,-1
 500 50 l 1,12,-1
 450 50 l 1,13,-1
 450 100 l 1,14,-1
 400 100 l 1,15,-1
 400 150 l 1,16,-1
 350 150 l 1,17,-1
 350 200 l 1,18,-1
 300 200 l 1,19,-1
 300 249 l 1,20,-1
 250 249 l 1,21,-1
 250 300 l 1,22,-1
 200 300 l 1,23,-1
 200 0 l 1,24,-1
 100 0 l 1,25,-1
 100 700 l 1,26,-1
 500 700 l 1,27,-1
 500 650 l 1,28,-1
 550 650 l 1,29,-1
 550 600 l 1,30,-1
 600 600 l 1,31,-1
 600 400 l 1,32,-1
 550 400 l 1,33,-1
 550 350 l 1,34,-1
 500 350 l 1,35,-1
 500 300 l 1,36,-1
 400 300 l 1,37,-1
 400 250 l 1,38,-1
 450 250 l 1,39,-1
 450 200 l 1,40,-1
 500 200 l 1,41,-1
 500 150 l 1,42,-1
 550 150 l 1,43,-1
 550 100 l 1,8,-1
EndSplineSet
Validated: 1
EndChar

StartChar: S
Encoding: 83 83 54
Width: 600
GlyphClass: 2
Flags: W
LayerCount: 2
Fore
SplineSet
200 150 m 1,0,-1
 250 150 l 1,1,-1
 250 100 l 1,2,-1
 450 100 l 1,3,-1
 450 150 l 1,4,-1
 500 150 l 1,5,-1
 500 250 l 1,6,-1
 450 250 l 1,7,-1
 450 300 l 1,8,-1
 200 300 l 1,9,-1
 200 350 l 1,10,-1
 150 350 l 1,11,-1
 150 400 l 1,12,-1
 100 400 l 1,13,-1
 100 600 l 1,14,-1
 150 600 l 1,15,-1
 150 650 l 1,16,-1
 200 650 l 1,17,-1
 200 700 l 1,18,-1
 500 700 l 1,19,-1
 500 650 l 1,20,-1
 550 650 l 1,21,-1
 550 600 l 1,22,-1
 600 600 l 1,23,-1
 600 500 l 1,24,-1
 500 500 l 1,25,-1
 500 550 l 1,26,-1
 450 550 l 1,27,-1
 450 600 l 1,28,-1
 250 600 l 1,29,-1
 250 550 l 1,30,-1
 200 550 l 1,31,-1
 200 450 l 1,32,-1
 250 450 l 1,33,-1
 250 400 l 1,34,-1
 500 400 l 1,35,-1
 500 350 l 1,36,-1
 550 350 l 1,37,-1
 550 300 l 1,38,-1
 600 300 l 1,39,-1
 600 100 l 1,40,-1
 550 100 l 1,41,-1
 550 50 l 1,42,-1
 500 50 l 1,43,-1
 500 0 l 1,44,-1
 200 0 l 1,45,-1
 200 50 l 1,46,-1
 150 50 l 1,47,-1
 150 100 l 1,48,-1
 100 100 l 1,49,-1
 100 200 l 1,50,-1
 200 200 l 1,51,-1
 200 150 l 1,0,-1
EndSplineSet
Validated: 1
EndChar

StartChar: T
Encoding: 84 84 55
Width: 600
GlyphClass: 2
Flags: W
LayerCount: 2
Fore
SplineSet
400 0 m 1,0,-1
 300 0 l 1,1,-1
 300 600 l 1,2,-1
 100 600 l 1,3,-1
 100 700 l 1,4,-1
 600 700 l 1,5,-1
 600 600 l 1,6,-1
 400 600 l 1,7,-1
 400 0 l 1,0,-1
EndSplineSet
Validated: 1
EndChar

StartChar: U
Encoding: 85 85 56
Width: 600
GlyphClass: 2
Flags: W
LayerCount: 2
Fore
SplineSet
500 700 m 1,0,-1
 600 700 l 1,1,-1
 600 100 l 1,2,-1
 550 100 l 1,3,-1
 550 50 l 1,4,-1
 500 50 l 1,5,-1
 500 0 l 1,6,-1
 200 0 l 1,7,-1
 200 50 l 1,8,-1
 150 50 l 1,9,-1
 150 100 l 1,10,-1
 100 100 l 1,11,-1
 100 700 l 1,12,-1
 200 700 l 1,13,-1
 200 150 l 1,14,-1
 250 150 l 1,15,-1
 250 100 l 1,16,-1
 450 100 l 1,17,-1
 450 150 l 1,18,-1
 500 150 l 1,19,-1
 500 700 l 1,0,-1
EndSplineSet
Validated: 1
EndChar

StartChar: V
Encoding: 86 86 57
Width: 600
GlyphClass: 2
Flags: W
LayerCount: 2
Fore
SplineSet
500 700 m 1,0,-1
 600 700 l 1,1,-1
 600 400 l 1,2,-1
 550 400 l 1,3,-1
 550 350 l 1,4,-1
 500 350 l 1,5,-1
 500 200 l 1,6,-1
 450 200 l 1,7,-1
 450 150 l 1,8,-1
 400 150 l 1,9,-1
 400 0 l 1,10,-1
 300 0 l 1,11,-1
 300 150 l 1,12,-1
 250 150 l 1,13,-1
 250 200 l 1,14,-1
 200 200 l 1,15,-1
 200 350 l 1,16,-1
 150 350 l 1,17,-1
 150 400 l 1,18,-1
 100 400 l 1,19,-1
 100 700 l 1,20,-1
 200 700 l 1,21,-1
 200 450 l 1,22,-1
 250 450 l 1,23,-1
 250 400 l 1,24,-1
 300 400 l 1,25,-1
 300 248 l 1,26,-1
 400 248 l 1,27,-1
 400 400 l 1,28,-1
 450 400 l 1,29,-1
 450 450 l 1,30,-1
 500 450 l 1,31,-1
 500 700 l 1,0,-1
EndSplineSet
Validated: 1
EndChar

StartChar: W
Encoding: 87 87 58
Width: 600
GlyphClass: 2
Flags: W
LayerCount: 2
Fore
SplineSet
400 150 m 1,0,-1
 500 150 l 1,1,-1
 500 700 l 1,2,-1
 600 700 l 1,3,-1
 600 100 l 1,4,-1
 550 100 l 1,5,-1
 550 50 l 1,6,-1
 500 50 l 1,7,-1
 500 0 l 1,8,-1
 400 0 l 1,9,-1
 400 50 l 1,10,-1
 300 50 l 1,11,-1
 300 0 l 1,12,-1
 200 0 l 1,13,-1
 200 50 l 1,14,-1
 150 50 l 1,15,-1
 150 100 l 1,16,-1
 100 100 l 1,17,-1
 100 700 l 1,18,-1
 200 700 l 1,19,-1
 200 150 l 1,20,-1
 300 150 l 1,21,-1
 300 400 l 1,22,-1
 400 400 l 1,23,-1
 400 150 l 1,0,-1
EndSplineSet
Validated: 1
EndChar

StartChar: X
Encoding: 88 88 59
Width: 600
GlyphClass: 2
Flags: W
LayerCount: 2
Fore
SplineSet
450 300 m 1,0,-1
 500 300 l 1,1,-1
 500 250 l 1,2,-1
 550 250 l 1,3,-1
 550 200 l 1,4,-1
 600 200 l 1,5,-1
 600 0 l 1,6,-1
 500 0 l 1,7,-1
 500 150 l 1,8,-1
 450 150 l 1,9,-1
 450 200 l 1,10,-1
 400 200 l 1,11,-1
 400 250 l 1,12,-1
 300 250 l 1,13,-1
 300 200 l 1,14,-1
 250 200 l 1,15,-1
 250 150 l 1,16,-1
 200 150 l 1,17,-1
 200 0 l 1,18,-1
 100 0 l 1,19,-1
 100 200 l 1,20,-1
 150 200 l 1,21,-1
 150 250 l 1,22,-1
 200 250 l 1,23,-1
 200 300 l 1,24,-1
 250 300 l 1,25,-1
 250 400 l 1,26,-1
 200 400 l 1,27,-1
 200 450 l 1,28,-1
 150 450 l 1,29,-1
 150 500 l 1,30,-1
 100 500 l 1,31,-1
 100 700 l 1,32,-1
 200 700 l 1,33,-1
 200 550 l 1,34,-1
 250 550 l 1,35,-1
 250 500 l 1,36,-1
 300 500 l 1,37,-1
 300 450 l 1,38,-1
 400 450 l 1,39,-1
 400 500 l 1,40,-1
 450 500 l 1,41,-1
 450 550 l 1,42,-1
 500 550 l 1,43,-1
 500 700 l 1,44,-1
 600 700 l 1,45,-1
 600 500 l 1,46,-1
 550 500 l 1,47,-1
 550 450 l 1,48,-1
 500 450 l 1,49,-1
 500 400 l 1,50,-1
 450 400 l 1,51,-1
 450 300 l 1,0,-1
EndSplineSet
Validated: 1
EndChar

StartChar: Y
Encoding: 89 89 60
Width: 600
GlyphClass: 2
Flags: W
LayerCount: 2
Fore
SplineSet
400 350 m 1,0,-1
 400 0 l 1,1,-1
 300 0 l 1,2,-1
 300 350 l 1,3,-1
 250 350 l 1,4,-1
 250 400 l 1,5,-1
 200 400 l 1,6,-1
 200 450 l 1,7,-1
 150 450 l 1,8,-1
 150 500 l 1,9,-1
 100 500 l 1,10,-1
 100 700 l 1,11,-1
 200 700 l 1,12,-1
 200 550 l 1,13,-1
 250 550 l 1,14,-1
 250 500 l 1,15,-1
 300 500 l 1,16,-1
 300 450 l 1,17,-1
 400 450 l 1,18,-1
 400 500 l 1,19,-1
 450 500 l 1,20,-1
 450 550 l 1,21,-1
 500 550 l 1,22,-1
 500 700 l 1,23,-1
 600 700 l 1,24,-1
 600 500 l 1,25,-1
 550 500 l 1,26,-1
 550 450 l 1,27,-1
 500 450 l 1,28,-1
 500 400 l 1,29,-1
 450 400 l 1,30,-1
 450 350 l 1,31,-1
 400 350 l 1,0,-1
EndSplineSet
Validated: 1
EndChar

StartChar: Z
Encoding: 90 90 61
Width: 600
GlyphClass: 2
Flags: W
LayerCount: 2
Fore
SplineSet
600 500 m 1,0,-1
 550 500 l 1,1,-1
 550 450 l 1,2,-1
 500 450 l 1,3,-1
 500 400 l 1,4,-1
 450 400 l 1,5,-1
 450 350 l 1,6,-1
 400 350 l 1,7,-1
 400 300 l 1,8,-1
 350 300 l 1,9,-1
 350 250 l 1,10,-1
 300 250 l 1,11,-1
 300 200 l 1,12,-1
 250 200 l 1,13,-1
 250 150 l 1,14,-1
 200 150 l 1,15,-1
 200 100 l 1,16,-1
 600 100 l 1,17,-1
 600 0 l 1,18,-1
 100 0 l 1,19,-1
 100 200 l 1,20,-1
 150 200 l 1,21,-1
 150 250 l 1,22,-1
 200 250 l 1,23,-1
 200 300 l 1,24,-1
 250 300 l 1,25,-1
 250 350 l 1,26,-1
 300 350 l 1,27,-1
 300 400 l 1,28,-1
 350 400 l 1,29,-1
 350 450 l 1,30,-1
 400 450 l 1,31,-1
 400 500 l 1,32,-1
 450 500 l 1,33,-1
 450 550 l 1,34,-1
 500 550 l 1,35,-1
 500 600 l 1,36,-1
 100 600 l 1,37,-1
 100 700 l 1,38,-1
 600 700 l 1,39,-1
 600 500 l 1,0,-1
EndSplineSet
Validated: 1
EndChar

StartChar: bracketleft
Encoding: 91 91 62
Width: 600
GlyphClass: 2
Flags: W
LayerCount: 2
Fore
SplineSet
325 100 m 1,0,-1
 500 100 l 1,1,-1
 500 0 l 1,2,-1
 200 0 l 1,3,-1
 200 700 l 1,4,-1
 500 700 l 1,5,-1
 500 600 l 1,6,-1
 325 600 l 1,7,-1
 325 100 l 1,0,-1
EndSplineSet
Validated: 1
EndChar

StartChar: backslash
Encoding: 92 92 63
Width: 600
GlyphClass: 2
Flags: W
LayerCount: 2
Fore
SplineSet
200 600 m 1,0,-1
 200 550 l 1,1,-1
 250 550 l 1,2,-1
 250 500 l 1,3,-1
 300 500 l 1,4,-1
 300 450 l 1,5,-1
 350 450 l 1,6,-1
 350 400 l 1,7,-1
 400 400 l 1,8,-1
 400 350 l 1,9,-1
 450 350 l 1,10,-1
 450 300 l 1,11,-1
 500 300 l 1,12,-1
 500 250 l 1,13,-1
 550 250 l 1,14,-1
 550 200 l 1,15,-1
 600 200 l 1,16,-1
 600 100 l 1,17,-1
 500 100 l 1,18,-1
 500 150 l 1,19,-1
 450 150 l 1,20,-1
 450 200 l 1,21,-1
 400 200 l 1,22,-1
 400 250 l 1,23,-1
 350 250 l 1,24,-1
 350 300 l 1,25,-1
 300 300 l 1,26,-1
 300 350 l 1,27,-1
 250 350 l 1,28,-1
 250 400 l 1,29,-1
 200 400 l 1,30,-1
 200 450 l 1,31,-1
 150 450 l 1,32,-1
 150 500 l 1,33,-1
 100 500 l 1,34,-1
 100 600 l 1,35,-1
 200 600 l 1,0,-1
EndSplineSet
Validated: 1
EndChar

StartChar: bracketright
Encoding: 93 93 64
Width: 600
GlyphClass: 2
Flags: W
LayerCount: 2
Fore
SplineSet
500 0 m 1,0,-1
 200 0 l 1,1,-1
 200 100 l 1,2,-1
 375 100 l 1,3,-1
 375 600 l 1,4,-1
 200 600 l 1,5,-1
 200 700 l 1,6,-1
 500 700 l 1,7,-1
 500 0 l 1,0,-1
EndSplineSet
Validated: 1
EndChar

StartChar: asciicircum
Encoding: 94 94 65
Width: 600
GlyphClass: 2
Flags: W
LayerCount: 2
Fore
SplineSet
500 450 m 1,0,-1
 550 450 l 1,1,-1
 550 400 l 1,2,-1
 600 400 l 1,3,-1
 600 300 l 1,4,-1
 500 300 l 1,5,-1
 500 350 l 1,6,-1
 450 350 l 1,7,-1
 450 400 l 1,8,-1
 400 400 l 1,9,-1
 400 456 l 1,10,-1
 300 456 l 1,11,-1
 300 400 l 1,12,-1
 250 400 l 1,13,-1
 250 350 l 1,14,-1
 200 350 l 1,15,-1
 200 300 l 1,16,-1
 100 300 l 1,17,-1
 100 400 l 1,18,-1
 150 400 l 1,19,-1
 150 450 l 1,20,-1
 200 450 l 1,21,-1
 200 500 l 1,22,-1
 250 500 l 1,23,-1
 250 550 l 1,24,-1
 300 550 l 1,25,-1
 300 600 l 1,26,-1
 400 600 l 1,27,-1
 400 550 l 1,28,-1
 450 550 l 1,29,-1
 450 500 l 1,30,-1
 500 500 l 1,31,-1
 500 450 l 1,0,-1
EndSplineSet
Validated: 1
EndChar

StartChar: underscore
Encoding: 95 95 66
Width: 600
GlyphClass: 2
Flags: W
LayerCount: 2
Fore
SplineSet
100 0 m 1,0,-1
 600 0 l 1,1,-1
 600 -100 l 1,2,-1
 100 -100 l 1,3,-1
 100 0 l 1,0,-1
EndSplineSet
Validated: 1
EndChar

StartChar: grave
Encoding: 96 96 67
Width: 600
GlyphClass: 2
Flags: W
LayerCount: 2
Fore
SplineSet
100 500 m 1,0,-1
 600 500 l 1,1,-1
 600 400 l 1,2,-1
 100 400 l 1,3,-1
 100 500 l 1,0,-1
EndSplineSet
Validated: 1
EndChar

StartChar: a
Encoding: 97 97 68
Width: 600
GlyphClass: 2
Flags: W
LayerCount: 2
Fore
SplineSet
250 200 m 1,0,-1
 250 100 l 1,1,-1
 500 100 l 1,2,-1
 500 200 l 1,3,-1
 250 200 l 1,0,-1
150 250 m 1,4,-1
 200 250 l 1,5,-1
 200 300 l 1,6,-1
 500 300 l 1,7,-1
 500 350 l 1,8,-1
 450 350 l 1,9,-1
 450 400 l 1,10,-1
 200 400 l 1,11,-1
 200 500 l 1,12,-1
 500 500 l 1,13,-1
 500 450 l 1,14,-1
 550 450 l 1,15,-1
 550 400 l 1,16,-1
 600 400 l 1,17,-1
 600 0 l 1,18,-1
 200 0 l 1,19,-1
 200 50 l 1,20,-1
 150 50 l 1,21,-1
 150 100 l 1,22,-1
 100 100 l 1,23,-1
 100 200 l 1,24,-1
 150 200 l 1,25,-1
 150 250 l 1,4,-1
EndSplineSet
Validated: 1
EndChar

StartChar: b
Encoding: 98 98 69
Width: 600
GlyphClass: 2
Flags: W
LayerCount: 2
Fore
SplineSet
450 400 m 1,0,-1
 200 400 l 1,1,-1
 200 100 l 1,2,-1
 450 100 l 1,3,-1
 450 150 l 1,4,-1
 500 150 l 1,5,-1
 500 350 l 1,6,-1
 450 350 l 1,7,-1
 450 400 l 1,0,-1
200 500 m 1,8,-1
 500 500 l 1,9,-1
 500 450 l 1,10,-1
 550 450 l 1,11,-1
 550 400 l 1,12,-1
 600 400 l 1,13,-1
 600 100 l 1,14,-1
 550 100 l 1,15,-1
 550 50 l 1,16,-1
 500 50 l 1,17,-1
 500 0 l 1,18,-1
 100 0 l 1,19,-1
 100 700 l 1,20,-1
 200 700 l 1,21,-1
 200 500 l 1,8,-1
EndSplineSet
Validated: 1
EndChar

StartChar: c
Encoding: 99 99 70
Width: 600
GlyphClass: 2
Flags: W
LayerCount: 2
Fore
SplineSet
250 100 m 1,0,-1
 600 100 l 1,1,-1
 600 0 l 1,2,-1
 200 0 l 1,3,-1
 200 50 l 1,4,-1
 150 50 l 1,5,-1
 150 100 l 1,6,-1
 100 100 l 1,7,-1
 100 400 l 1,8,-1
 150 400 l 1,9,-1
 150 450 l 1,10,-1
 200 450 l 1,11,-1
 200 500 l 1,12,-1
 600 500 l 1,13,-1
 600 400 l 1,14,-1
 250 400 l 1,15,-1
 250 350 l 1,16,-1
 200 350 l 1,17,-1
 200 150 l 1,18,-1
 250 150 l 1,19,-1
 250 100 l 1,0,-1
EndSplineSet
Validated: 1
EndChar

StartChar: d
Encoding: 100 100 71
Width: 600
GlyphClass: 2
Flags: W
LayerCount: 2
Fore
SplineSet
500 400 m 1,0,-1
 250 400 l 1,1,-1
 250 350 l 1,2,-1
 200 350 l 1,3,-1
 200 150 l 1,4,-1
 250 150 l 1,5,-1
 250 100 l 1,6,-1
 500 100 l 1,7,-1
 500 400 l 1,0,-1
200 500 m 1,8,-1
 500 500 l 1,9,-1
 500 700 l 1,10,-1
 600 700 l 1,11,-1
 600 0 l 1,12,-1
 200 0 l 1,13,-1
 200 50 l 1,14,-1
 150 50 l 1,15,-1
 150 100 l 1,16,-1
 100 100 l 1,17,-1
 100 400 l 1,18,-1
 150 400 l 1,19,-1
 150 450 l 1,20,-1
 200 450 l 1,21,-1
 200 500 l 1,8,-1
EndSplineSet
Validated: 1
EndChar

StartChar: e
Encoding: 101 101 72
Width: 600
GlyphClass: 2
Flags: W
LayerCount: 2
Fore
SplineSet
250 400 m 1,0,-1
 250 350 l 1,1,-1
 200 350 l 1,2,-1
 200 300 l 1,3,-1
 500 300 l 1,4,-1
 500 350 l 1,5,-1
 450 350 l 1,6,-1
 450 400 l 1,7,-1
 250 400 l 1,0,-1
150 450 m 1,8,-1
 200 450 l 1,9,-1
 200 500 l 1,10,-1
 500 500 l 1,11,-1
 500 450 l 1,12,-1
 550 450 l 1,13,-1
 550 400 l 1,14,-1
 600 400 l 1,15,-1
 600 200 l 1,16,-1
 200 200 l 1,17,-1
 200 150 l 1,18,-1
 250 150 l 1,19,-1
 250 100 l 1,20,-1
 500 100 l 1,21,-1
 500 0 l 1,22,-1
 200 0 l 1,23,-1
 200 50 l 1,24,-1
 150 50 l 1,25,-1
 150 100 l 1,26,-1
 100 100 l 1,27,-1
 100 400 l 1,28,-1
 150 400 l 1,29,-1
 150 450 l 1,8,-1
EndSplineSet
Validated: 1
EndChar

StartChar: f
Encoding: 102 102 73
Width: 600
GlyphClass: 2
Flags: W
LayerCount: 2
Fore
SplineSet
200 400 m 1,0,-1
 300 400 l 1,1,-1
 300 600 l 1,2,-1
 350 600 l 1,3,-1
 350 650 l 1,4,-1
 400 650 l 1,5,-1
 400 700 l 1,6,-1
 500 700 l 1,7,-1
 500 600 l 1,8,-1
 450 600 l 1,9,-1
 450 550 l 1,10,-1
 400 550 l 1,11,-1
 400 400 l 1,12,-1
 500 400 l 1,13,-1
 500 300 l 1,14,-1
 400 300 l 1,15,-1
 400 0 l 1,16,-1
 300 0 l 1,17,-1
 300 300 l 1,18,-1
 200 300 l 1,19,-1
 200 400 l 1,0,-1
EndSplineSet
Validated: 1
EndChar

StartChar: g
Encoding: 103 103 74
Width: 600
GlyphClass: 2
Flags: W
LayerCount: 2
Fore
SplineSet
500 400 m 1,0,-1
 250 400 l 1,1,-1
 250 350 l 1,2,-1
 200 350 l 1,3,-1
 200 150 l 1,4,-1
 250 150 l 1,5,-1
 250 100 l 1,6,-1
 500 100 l 1,7,-1
 500 400 l 1,0,-1
200 500 m 1,8,-1
 600 500 l 1,9,-1
 600 -100 l 1,10,-1
 550 -100 l 1,11,-1
 550 -150 l 1,12,-1
 500 -150 l 1,13,-1
 500 -200 l 1,14,-1
 200 -200 l 1,15,-1
 200 -100 l 1,16,-1
 450 -100 l 1,17,-1
 450 -50 l 1,18,-1
 500 -50 l 1,19,-1
 500 0 l 1,20,-1
 200 0 l 1,21,-1
 200 50 l 1,22,-1
 150 50 l 1,23,-1
 150 100 l 1,24,-1
 100 100 l 1,25,-1
 100 400 l 1,26,-1
 150 400 l 1,27,-1
 150 450 l 1,28,-1
 200 450 l 1,29,-1
 200 500 l 1,8,-1
EndSplineSet
Validated: 1
EndChar

StartChar: h
Encoding: 104 104 75
Width: 600
GlyphClass: 2
Flags: W
LayerCount: 2
Fore
SplineSet
200 500 m 1,0,-1
 500 500 l 1,1,-1
 500 450 l 1,2,-1
 550 450 l 1,3,-1
 550 400 l 1,4,-1
 600 400 l 1,5,-1
 600 0 l 1,6,-1
 500 0 l 1,7,-1
 500 350 l 1,8,-1
 450 350 l 1,9,-1
 450 400 l 1,10,-1
 200 400 l 1,11,-1
 200 0 l 1,12,-1
 100 0 l 1,13,-1
 100 700 l 1,14,-1
 200 700 l 1,15,-1
 200 500 l 1,0,-1
EndSplineSet
Validated: 1
EndChar

StartChar: i
Encoding: 105 105 76
Width: 600
GlyphClass: 2
Flags: W
LayerCount: 2
Fore
SplineSet
300 700 m 1,0,-1
 400 700 l 1,1,-1
 400 600 l 1,2,-1
 300 600 l 1,3,-1
 300 700 l 1,0,-1
200 100 m 1,4,-1
 300 100 l 1,5,-1
 300 400 l 1,6,-1
 200 400 l 1,7,-1
 200 500 l 1,8,-1
 400 500 l 1,9,-1
 400 100 l 1,10,-1
 500 100 l 1,11,-1
 500 0 l 1,12,-1
 200 0 l 1,13,-1
 200 100 l 1,4,-1
EndSplineSet
Validated: 1
EndChar

StartChar: j
Encoding: 106 106 77
Width: 600
GlyphClass: 2
Flags: W
LayerCount: 2
Fore
SplineSet
300 700 m 1,0,-1
 400 700 l 1,1,-1
 400 600 l 1,2,-1
 300 600 l 1,3,-1
 300 700 l 1,0,-1
250 -50 m 1,4,-1
 300 -50 l 1,5,-1
 300 500 l 1,6,-1
 400 500 l 1,7,-1
 400 -100 l 1,8,-1
 350 -100 l 1,9,-1
 350 -150 l 1,10,-1
 300 -150 l 1,11,-1
 300 -200 l 1,12,-1
 200 -200 l 1,13,-1
 200 -100 l 1,14,-1
 250 -100 l 1,15,-1
 250 -50 l 1,4,-1
EndSplineSet
Validated: 1
EndChar

StartChar: k
Encoding: 107 107 78
Width: 600
GlyphClass: 2
Flags: W
LayerCount: 2
Fore
SplineSet
300 300 m 1,0,-1
 350 300 l 1,1,-1
 350 350 l 1,2,-1
 400 350 l 1,3,-1
 400 400 l 1,4,-1
 450 400 l 1,5,-1
 450 450 l 1,6,-1
 500 450 l 1,7,-1
 500 500 l 1,8,-1
 600 500 l 1,9,-1
 600 400 l 1,10,-1
 550 400 l 1,11,-1
 550 350 l 1,12,-1
 500 350 l 1,13,-1
 500 300 l 1,14,-1
 450 300 l 1,15,-1
 450 200 l 1,16,-1
 500 200 l 1,17,-1
 500 150 l 1,18,-1
 550 150 l 1,19,-1
 550 100 l 1,20,-1
 600 100 l 1,21,-1
 600 0 l 1,22,-1
 500 0 l 1,23,-1
 500 50 l 1,24,-1
 450 50 l 1,25,-1
 450 100 l 1,26,-1
 400 100 l 1,27,-1
 400 150 l 1,28,-1
 350 150 l 1,29,-1
 350 200 l 1,30,-1
 300 200 l 1,31,-1
 300 0 l 1,32,-1
 200 0 l 1,33,-1
 200 700 l 1,34,-1
 300 700 l 1,35,-1
 300 300 l 1,0,-1
EndSplineSet
Validated: 1
EndChar

StartChar: l
Encoding: 108 108 79
Width: 600
GlyphClass: 2
Flags: W
LayerCount: 2
Fore
SplineSet
200 700 m 1,0,-1
 400 700 l 1,1,-1
 400 100 l 1,2,-1
 500 100 l 1,3,-1
 500 0 l 1,4,-1
 200 0 l 1,5,-1
 200 100 l 1,6,-1
 300 100 l 1,7,-1
 300 600 l 1,8,-1
 200 600 l 1,9,-1
 200 700 l 1,0,-1
EndSplineSet
Validated: 1
EndChar

StartChar: m
Encoding: 109 109 80
Width: 600
GlyphClass: 2
Flags: W
LayerCount: 2
Fore
SplineSet
400 350 m 1,0,-1
 400 0 l 1,1,-1
 300 0 l 1,2,-1
 300 350 l 1,3,-1
 250 350 l 1,4,-1
 250 400 l 1,5,-1
 200 400 l 1,6,-1
 200 0 l 1,7,-1
 100 0 l 1,8,-1
 100 500 l 1,9,-1
 300 500 l 1,10,-1
 300 450 l 1,11,-1
 400 450 l 1,12,-1
 400 500 l 1,13,-1
 500 500 l 1,14,-1
 500 450 l 1,15,-1
 550 450 l 1,16,-1
 550 400 l 1,17,-1
 600 400 l 1,18,-1
 600 0 l 1,19,-1
 500 0 l 1,20,-1
 500 350 l 1,21,-1
 400 350 l 1,0,-1
EndSplineSet
Validated: 1
EndChar

StartChar: n
Encoding: 110 110 81
Width: 600
GlyphClass: 2
Flags: W
LayerCount: 2
Fore
SplineSet
200 0 m 1,0,-1
 100 0 l 1,1,-1
 100 500 l 1,2,-1
 500 500 l 1,3,-1
 500 450 l 1,4,-1
 550 450 l 1,5,-1
 550 400 l 1,6,-1
 600 400 l 1,7,-1
 600 0 l 1,8,-1
 500 0 l 1,9,-1
 500 350 l 1,10,-1
 450 350 l 1,11,-1
 450 400 l 1,12,-1
 200 400 l 1,13,-1
 200 0 l 1,0,-1
EndSplineSet
Validated: 1
EndChar

StartChar: o
Encoding: 111 111 82
Width: 600
GlyphClass: 2
Flags: W
LayerCount: 2
Fore
SplineSet
250 400 m 1,0,-1
 250 350 l 1,1,-1
 200 350 l 1,2,-1
 200 150 l 1,3,-1
 250 150 l 1,4,-1
 250 100 l 1,5,-1
 450 100 l 1,6,-1
 450 150 l 1,7,-1
 500 150 l 1,8,-1
 500 350 l 1,9,-1
 450 350 l 1,10,-1
 450 400 l 1,11,-1
 250 400 l 1,0,-1
150 450 m 1,12,-1
 200 450 l 1,13,-1
 200 500 l 1,14,-1
 500 500 l 1,15,-1
 500 450 l 1,16,-1
 550 450 l 1,17,-1
 550 400 l 1,18,-1
 600 400 l 1,19,-1
 600 100 l 1,20,-1
 550 100 l 1,21,-1
 550 50 l 1,22,-1
 500 50 l 1,23,-1
 500 0 l 1,24,-1
 200 0 l 1,25,-1
 200 50 l 1,26,-1
 150 50 l 1,27,-1
 150 100 l 1,28,-1
 100 100 l 1,29,-1
 100 400 l 1,30,-1
 150 400 l 1,31,-1
 150 450 l 1,12,-1
EndSplineSet
Validated: 1
EndChar

StartChar: p
Encoding: 112 112 83
Width: 600
GlyphClass: 2
Flags: W
LayerCount: 2
Fore
SplineSet
500 50 m 1,0,-1
 500 0 l 1,1,-1
 200 0 l 1,2,-1
 200 -200 l 1,3,-1
 100 -200 l 1,4,-1
 100 500 l 1,5,-1
 500 500 l 1,6,-1
 500 450 l 1,7,-1
 550 450 l 1,8,-1
 550 400 l 1,9,-1
 600 400 l 1,10,-1
 600 100 l 1,11,-1
 550 100 l 1,12,-1
 550 50 l 1,13,-1
 500 50 l 1,0,-1
200 100 m 1,14,-1
 450 100 l 1,15,-1
 450 150 l 1,16,-1
 500 150 l 1,17,-1
 500 350 l 1,18,-1
 450 350 l 1,19,-1
 450 400 l 1,20,-1
 200 400 l 1,21,-1
 200 100 l 1,14,-1
EndSplineSet
Validated: 1
EndChar

StartChar: q
Encoding: 113 113 84
Width: 600
GlyphClass: 2
Flags: W
LayerCount: 2
Fore
SplineSet
600 -200 m 1,0,-1
 500 -200 l 1,1,-1
 500 0 l 1,2,-1
 200 0 l 1,3,-1
 200 50 l 1,4,-1
 150 50 l 1,5,-1
 150 100 l 1,6,-1
 100 100 l 1,7,-1
 100 400 l 1,8,-1
 150 400 l 1,9,-1
 150 450 l 1,10,-1
 200 450 l 1,11,-1
 200 500 l 1,12,-1
 600 500 l 1,13,-1
 600 -200 l 1,0,-1
500 100 m 1,14,-1
 500 400 l 1,15,-1
 250 400 l 1,16,-1
 250 350 l 1,17,-1
 200 350 l 1,18,-1
 200 150 l 1,19,-1
 250 150 l 1,20,-1
 250 100 l 1,21,-1
 500 100 l 1,14,-1
EndSplineSet
Validated: 1
EndChar

StartChar: r
Encoding: 114 114 85
Width: 600
GlyphClass: 2
Flags: W
LayerCount: 2
Fore
SplineSet
300 0 m 1,0,-1
 200 0 l 1,1,-1
 200 500 l 1,2,-1
 300 500 l 1,3,-1
 300 400 l 1,4,-1
 350 400 l 1,5,-1
 350 450 l 1,6,-1
 400 450 l 1,7,-1
 400 500 l 1,8,-1
 600 500 l 1,9,-1
 600 400 l 1,10,-1
 450 400 l 1,11,-1
 450 350 l 1,12,-1
 400 350 l 1,13,-1
 400 300 l 1,14,-1
 300 300 l 1,15,-1
 300 0 l 1,0,-1
EndSplineSet
Validated: 1
EndChar

StartChar: s
Encoding: 115 115 86
Width: 600
GlyphClass: 2
Flags: W
LayerCount: 2
Fore
SplineSet
200 500 m 1,0,-1
 600 500 l 1,1,-1
 600 400 l 1,2,-1
 250 400 l 1,3,-1
 250 300 l 1,4,-1
 500 300 l 1,5,-1
 500 250 l 1,6,-1
 550 250 l 1,7,-1
 550 200 l 1,8,-1
 600 200 l 1,9,-1
 600 100 l 1,10,-1
 550 100 l 1,11,-1
 550 50 l 1,12,-1
 500 50 l 1,13,-1
 500 0 l 1,14,-1
 100 0 l 1,15,-1
 100 100 l 1,16,-1
 450 100 l 1,17,-1
 450 200 l 1,18,-1
 200 200 l 1,19,-1
 200 250 l 1,20,-1
 150 250 l 1,21,-1
 150 300 l 1,22,-1
 100 300 l 1,23,-1
 100 400 l 1,24,-1
 150 400 l 1,25,-1
 150 450 l 1,26,-1
 200 450 l 1,27,-1
 200 500 l 1,0,-1
EndSplineSet
Validated: 1
EndChar

StartChar: t
Encoding: 116 116 87
Width: 600
GlyphClass: 2
Flags: W
LayerCount: 2
Fore
SplineSet
400 150 m 1,0,-1
 450 150 l 1,1,-1
 450 100 l 1,2,-1
 500 100 l 1,3,-1
 500 0 l 1,4,-1
 400 0 l 1,5,-1
 400 50 l 1,6,-1
 350 50 l 1,7,-1
 350 100 l 1,8,-1
 300 100 l 1,9,-1
 300 400 l 1,10,-1
 200 400 l 1,11,-1
 200 500 l 1,12,-1
 300 500 l 1,13,-1
 300 700 l 1,14,-1
 400 700 l 1,15,-1
 400 500 l 1,16,-1
 500 500 l 1,17,-1
 500 400 l 1,18,-1
 400 400 l 1,19,-1
 400 150 l 1,0,-1
EndSplineSet
Validated: 1
EndChar

StartChar: u
Encoding: 117 117 88
Width: 600
GlyphClass: 2
Flags: W
LayerCount: 2
Fore
SplineSet
500 500 m 1,0,-1
 600 500 l 1,1,-1
 600 0 l 1,2,-1
 200 0 l 1,3,-1
 200 50 l 1,4,-1
 150 50 l 1,5,-1
 150 100 l 1,6,-1
 100 100 l 1,7,-1
 100 500 l 1,8,-1
 200 500 l 1,9,-1
 200 150 l 1,10,-1
 250 150 l 1,11,-1
 250 100 l 1,12,-1
 500 100 l 1,13,-1
 500 500 l 1,0,-1
EndSplineSet
Validated: 1
EndChar

StartChar: v
Encoding: 118 118 89
Width: 600
GlyphClass: 2
Flags: W
LayerCount: 2
Fore
SplineSet
500 500 m 1,0,-1
 600 500 l 1,1,-1
 600 300 l 1,2,-1
 550 300 l 1,3,-1
 550 250 l 1,4,-1
 500 250 l 1,5,-1
 500 100 l 1,6,-1
 450 100 l 1,7,-1
 450 50 l 1,8,-1
 400 50 l 1,9,-1
 400 0 l 1,10,-1
 300 0 l 1,11,-1
 300 50 l 1,12,-1
 250 50 l 1,13,-1
 250 100 l 1,14,-1
 200 100 l 1,15,-1
 200 250 l 1,16,-1
 150 250 l 1,17,-1
 150 300 l 1,18,-1
 100 300 l 1,19,-1
 100 500 l 1,20,-1
 200 500 l 1,21,-1
 200 350 l 1,22,-1
 250 350 l 1,23,-1
 250 300 l 1,24,-1
 300 300 l 1,25,-1
 300 150 l 1,26,-1
 400 150 l 1,27,-1
 400 300 l 1,28,-1
 450 300 l 1,29,-1
 450 350 l 1,30,-1
 500 350 l 1,31,-1
 500 500 l 1,0,-1
EndSplineSet
Validated: 1
EndChar

StartChar: w
Encoding: 119 119 90
Width: 600
GlyphClass: 2
Flags: W
LayerCount: 2
Fore
SplineSet
500 50 m 1,0,-1
 500 0 l 1,1,-1
 400 0 l 1,2,-1
 400 50 l 1,3,-1
 300 50 l 1,4,-1
 300 0 l 1,5,-1
 200 0 l 1,6,-1
 200 50 l 1,7,-1
 150 50 l 1,8,-1
 150 100 l 1,9,-1
 100 100 l 1,10,-1
 100 500 l 1,11,-1
 200 500 l 1,12,-1
 200 150 l 1,13,-1
 300 150 l 1,14,-1
 300 300 l 1,15,-1
 400 300 l 1,16,-1
 400 150 l 1,17,-1
 500 150 l 1,18,-1
 500 500 l 1,19,-1
 600 500 l 1,20,-1
 600 100 l 1,21,-1
 550 100 l 1,22,-1
 550 50 l 1,23,-1
 500 50 l 1,0,-1
EndSplineSet
Validated: 1
EndChar

StartChar: x
Encoding: 120 120 91
Width: 600
GlyphClass: 2
Flags: W
LayerCount: 2
Fore
SplineSet
550 100 m 1,0,-1
 600 100 l 1,1,-1
 600 0 l 1,2,-1
 500 0 l 1,3,-1
 500 50 l 1,4,-1
 450 50 l 1,5,-1
 450 100 l 1,6,-1
 400 100 l 1,7,-1
 400 150 l 1,8,-1
 300 150 l 1,9,-1
 300 100 l 1,10,-1
 250 100 l 1,11,-1
 250 50 l 1,12,-1
 200 50 l 1,13,-1
 200 0 l 1,14,-1
 100 0 l 1,15,-1
 100 100 l 1,16,-1
 150 100 l 1,17,-1
 150 150 l 1,18,-1
 200 150 l 1,19,-1
 200 200 l 1,20,-1
 250 200 l 1,21,-1
 250 300 l 1,22,-1
 200 300 l 1,23,-1
 200 350 l 1,24,-1
 150 350 l 1,25,-1
 150 400 l 1,26,-1
 100 400 l 1,27,-1
 100 500 l 1,28,-1
 200 500 l 1,29,-1
 200 450 l 1,30,-1
 250 450 l 1,31,-1
 250 400 l 1,32,-1
 300 400 l 1,33,-1
 300 350 l 1,34,-1
 400 350 l 1,35,-1
 400 400 l 1,36,-1
 450 400 l 1,37,-1
 450 450 l 1,38,-1
 500 450 l 1,39,-1
 500 500 l 1,40,-1
 600 500 l 1,41,-1
 600 400 l 1,42,-1
 550 400 l 1,43,-1
 550 350 l 1,44,-1
 500 350 l 1,45,-1
 500 300 l 1,46,-1
 450 300 l 1,47,-1
 450 200 l 1,48,-1
 500 200 l 1,49,-1
 500 150 l 1,50,-1
 550 150 l 1,51,-1
 550 100 l 1,0,-1
EndSplineSet
Validated: 1
EndChar

StartChar: y
Encoding: 121 121 92
Width: 600
GlyphClass: 2
Flags: W
LayerCount: 2
Fore
SplineSet
450 -50 m 1,0,-1
 500 -50 l 1,1,-1
 500 0 l 1,2,-1
 200 0 l 1,3,-1
 200 50 l 1,4,-1
 150 50 l 1,5,-1
 150 100 l 1,6,-1
 100 100 l 1,7,-1
 100 500 l 1,8,-1
 200 500 l 1,9,-1
 200 150 l 1,10,-1
 250 150 l 1,11,-1
 250 100 l 1,12,-1
 500 100 l 1,13,-1
 500 500 l 1,14,-1
 600 500 l 1,15,-1
 600 -100 l 1,16,-1
 550 -100 l 1,17,-1
 550 -150 l 1,18,-1
 500 -150 l 1,19,-1
 500 -200 l 1,20,-1
 200 -200 l 1,21,-1
 200 -100 l 1,22,-1
 450 -100 l 1,23,-1
 450 -50 l 1,0,-1
EndSplineSet
Validated: 1
EndChar

StartChar: z
Encoding: 122 122 93
Width: 600
GlyphClass: 2
Flags: W
LayerCount: 2
Fore
SplineSet
550 400 m 1,0,-1
 550 350 l 1,1,-1
 500 350 l 1,2,-1
 500 300 l 1,3,-1
 450 300 l 1,4,-1
 450 250 l 1,5,-1
 400 250 l 1,6,-1
 400 200 l 1,7,-1
 350 200 l 1,8,-1
 350 150 l 1,9,-1
 300 150 l 1,10,-1
 300 100 l 1,11,-1
 600 100 l 1,12,-1
 600 0 l 1,13,-1
 100 0 l 1,14,-1
 100 100 l 1,15,-1
 150 100 l 1,16,-1
 150 150 l 1,17,-1
 200 150 l 1,18,-1
 200 200 l 1,19,-1
 250 200 l 1,20,-1
 250 250 l 1,21,-1
 300 250 l 1,22,-1
 300 300 l 1,23,-1
 350 300 l 1,24,-1
 350 350 l 1,25,-1
 400 350 l 1,26,-1
 400 400 l 1,27,-1
 100 400 l 1,28,-1
 100 500 l 1,29,-1
 600 500 l 1,30,-1
 600 400 l 1,31,-1
 550 400 l 1,0,-1
EndSplineSet
Validated: 1
EndChar

StartChar: braceleft
Encoding: 123 123 94
Width: 600
GlyphClass: 2
Flags: W
LayerCount: 2
Fore
SplineSet
372 101 m 1,0,-1
 251 101 l 1,1,-1
 251 151 l 1,2,-1
 251 251 l 1,3,-1
 251 300 l 1,4,-1
 251 333 l 1,5,-1
 251 363 l 1,6,-1
 251 401 l 1,7,-1
 251 451 l 1,8,-1
 251 551 l 1,9,-1
 251 602 l 1,10,-1
 372 602 l 1,11,-1
 372 702 l 1,12,-1
 244 702 l 1,13,-1
 201 702 l 1,14,-1
 201 602 l 1,15,-1
 152 602 l 1,16,-1
 152 402 l 1,17,-1
 68 402 l 1,18,-1
 68 302 l 5,19,-1
 152 302 l 5,20,-1
 152 101 l 1,21,-1
 201 101 l 1,22,-1
 201 51 l 1,23,-1
 201 1 l 1,24,-1
 372 1 l 1,25,-1
 372 101 l 1,0,-1
EndSplineSet
EndChar

StartChar: bar
Encoding: 124 124 95
Width: 600
GlyphClass: 2
Flags: W
LayerCount: 2
Fore
SplineSet
200 700 m 1,0,-1
 300 700 l 1,1,-1
 300 0 l 1,2,-1
 200 0 l 1,3,-1
 200 700 l 1,0,-1
400 700 m 1,4,-1
 500 700 l 1,5,-1
 500 0 l 1,6,-1
 400 0 l 1,7,-1
 400 700 l 1,4,-1
EndSplineSet
Validated: 1
EndChar

StartChar: braceright
Encoding: 125 125 96
Width: 600
GlyphClass: 2
Flags: WO
LayerCount: 2
Fore
SplineSet
222 99 m 1,0,-1
 343 99 l 1,1,-1
 343 149 l 1,2,-1
 343 249 l 1,3,-1
 343 298 l 1,4,-1
 343 331 l 1,5,-1
 343 361 l 1,6,-1
 343 399 l 1,7,-1
 343 449 l 1,8,-1
 343 549 l 1,9,-1
 343 600 l 1,10,-1
 222 600 l 1,11,-1
 222 700 l 1,12,-1
 350 700 l 1,13,-1
 393 700 l 1,14,-1
 393 600 l 1,15,-1
 442 600 l 1,16,-1
 442 400 l 1,17,-1
 544 400 l 1,18,-1
 544 300 l 5,19,-1
 442 300 l 5,20,-1
 442 99 l 1,21,-1
 393 99 l 1,22,-1
 393 49 l 1,23,-1
 393 -1 l 1,24,-1
 222 -1 l 1,25,-1
 222 99 l 1,0,-1
EndSplineSet
EndChar

StartChar: uni0084
Encoding: 132 132 97
Width: 600
GlyphClass: 2
Flags: W
LayerCount: 2
Fore
SplineSet
600 300 m 1,0,-1
 550 300 l 1,1,-1
 550 250 l 1,2,-1
 500 250 l 1,3,-1
 500 200 l 1,4,-1
 450 200 l 1,5,-1
 450 150 l 1,6,-1
 400 150 l 1,7,-1
 400 100 l 1,8,-1
 300 100 l 1,9,-1
 300 200 l 1,10,-1
 350 200 l 1,11,-1
 350 250 l 1,12,-1
 400 250 l 1,13,-1
 400 300 l 1,14,-1
 100 300 l 1,15,-1
 100 400 l 1,16,-1
 400 400 l 1,17,-1
 400 450 l 1,18,-1
 350 450 l 1,19,-1
 350 500 l 1,20,-1
 300 500 l 1,21,-1
 300 600 l 1,22,-1
 400 600 l 1,23,-1
 400 550 l 1,24,-1
 450 550 l 1,25,-1
 450 500 l 1,26,-1
 500 500 l 1,27,-1
 500 450 l 1,28,-1
 550 450 l 1,29,-1
 550 400 l 1,30,-1
 600 400 l 1,31,-1
 600 300 l 1,0,-1
EndSplineSet
Validated: 1
EndChar

StartChar: uni0085
Encoding: 133 133 98
Width: 600
GlyphClass: 2
Flags: W
LayerCount: 2
Fore
SplineSet
300 100 m 1,0,-1
 400 100 l 1,1,-1
 400 200 l 1,2,-1
 350 200 l 1,3,-1
 350 250 l 1,4,-1
 300 250 l 1,5,-1
 300 300 l 1,6,-1
 600 300 l 1,7,-1
 600 400 l 1,8,-1
 300 400 l 1,9,-1
 300 450 l 1,10,-1
 350 450 l 1,11,-1
 350 500 l 1,12,-1
 400 500 l 1,13,-1
 400 600 l 1,14,-1
 300 600 l 1,15,-1
 300 550 l 1,16,-1
 250 550 l 1,17,-1
 250 500 l 1,18,-1
 200 500 l 1,19,-1
 200 450 l 1,20,-1
 150 450 l 1,21,-1
 150 400 l 1,22,-1
 100 400 l 1,23,-1
 100 300 l 1,24,-1
 150 300 l 1,25,-1
 150 250 l 1,26,-1
 200 250 l 1,27,-1
 200 200 l 1,28,-1
 250 200 l 1,29,-1
 250 150 l 1,30,-1
 300 150 l 1,31,-1
 300 100 l 1,0,-1
EndSplineSet
Validated: 9
EndChar

StartChar: uni0086
Encoding: 134 134 99
Width: 600
GlyphClass: 2
Flags: W
LayerCount: 2
Fore
SplineSet
450 100 m 1,0,-1
 501 100 l 1,1,-1
 501 150 l 1,2,-1
 501 250 l 1,3,-1
 501 299 l 1,4,-1
 501 332 l 1,5,-1
 501 362 l 1,6,-1
 501 400 l 1,7,-1
 501 450 l 1,8,-1
 501 550 l 1,9,-1
 501 601 l 1,10,-1
 450 601 l 1,11,-1
 450 701 l 1,12,-1
 508 701 l 1,13,-1
 551 701 l 1,14,-1
 551 601 l 1,15,-1
 600 601 l 1,16,-1
 600 400 l 1,17,-1
 652 400 l 1,18,-1
 652 300 l 1,19,-1
 600 300 l 1,20,-1
 600 100 l 1,21,-1
 551 100 l 1,22,-1
 551 50 l 1,23,-1
 551 0 l 1,24,-1
 450 0 l 1,25,-1
 450 100 l 1,0,-1
EndSplineSet
Validated: 1
EndChar

StartChar: sterling
Encoding: 163 163 101
Width: 600
GlyphClass: 2
Flags: W
LayerCount: 2
Fore
SplineSet
600 -100 m 1,0,-1
 100 -100 l 1,1,-1
 100 0 l 1,2,-1
 200 0 l 1,3,-1
 200 200 l 1,4,-1
 100 200 l 1,5,-1
 100 300 l 1,6,-1
 200 300 l 1,7,-1
 200 600 l 1,8,-1
 250 600 l 1,9,-1
 250 650 l 1,10,-1
 300 650 l 1,11,-1
 300 700 l 1,12,-1
 500 700 l 1,13,-1
 500 650 l 1,14,-1
 550 650 l 1,15,-1
 550 600 l 1,16,-1
 600 600 l 1,17,-1
 600 500 l 1,18,-1
 500 500 l 1,19,-1
 500 550 l 1,20,-1
 450 550 l 1,21,-1
 450 600 l 1,22,-1
 350 600 l 1,23,-1
 350 550 l 1,24,-1
 300 550 l 1,25,-1
 300 300 l 1,26,-1
 400 300 l 1,27,-1
 400 200 l 1,28,-1
 300 200 l 1,29,-1
 300 0 l 1,30,-1
 600 0 l 1,31,-1
 600 -100 l 1,0,-1
EndSplineSet
Validated: 1
EndChar

StartChar: onequarter
Encoding: 188 188 102
Width: 600
GlyphClass: 2
Flags: W
LayerCount: 2
Fore
SplineSet
300 200 m 1,0,-1
 200 200 l 1,1,-1
 200 700 l 1,2,-1
 300 700 l 1,3,-1
 300 200 l 1,0,-1
600 -200 m 1,4,-1
 500 -200 l 1,5,-1
 500 -100 l 1,6,-1
 300 -100 l 1,7,-1
 300 100 l 1,8,-1
 350 100 l 1,9,-1
 350 150 l 1,10,-1
 400 150 l 1,11,-1
 400 200 l 1,12,-1
 450 200 l 1,13,-1
 450 250 l 1,14,-1
 500 250 l 1,15,-1
 500 300 l 1,16,-1
 600 300 l 1,17,-1
 600 -200 l 1,4,-1
500 0 m 1,18,-1
 500 100 l 1,19,-1
 450 100 l 1,20,-1
 450 50 l 1,21,-1
 400 50 l 1,22,-1
 400 0 l 1,23,-1
 500 0 l 1,18,-1
EndSplineSet
Validated: 1
EndChar

StartChar: onehalf
Encoding: 189 189 103
Width: 600
GlyphClass: 2
Flags: W
LayerCount: 2
Fore
SplineSet
200 200 m 1,0,-1
 100 200 l 1,1,-1
 100 700 l 1,2,-1
 200 700 l 1,3,-1
 200 200 l 1,0,-1
600 -200 m 1,4,-1
 300 -200 l 1,5,-1
 300 0 l 1,6,-1
 350 0 l 1,7,-1
 350 50 l 1,8,-1
 400 50 l 1,9,-1
 400 100 l 1,10,-1
 450 100 l 1,11,-1
 450 200 l 1,12,-1
 300 200 l 1,13,-1
 300 300 l 1,14,-1
 500 300 l 1,15,-1
 500 250 l 1,16,-1
 550 250 l 1,17,-1
 550 200 l 1,18,-1
 600 200 l 1,19,-1
 600 100 l 1,20,-1
 550 100 l 1,21,-1
 550 50 l 1,22,-1
 500 50 l 1,23,-1
 500 0 l 1,24,-1
 450 0 l 1,25,-1
 450 -50 l 1,26,-1
 400 -50 l 1,27,-1
 400 -100 l 1,28,-1
 600 -100 l 1,29,-1
 600 -200 l 1,4,-1
EndSplineSet
Validated: 1
EndChar

StartChar: threequarters
Encoding: 190 190 104
Width: 600
GlyphClass: 2
Flags: W
LayerCount: 2
Fore
SplineSet
400 300 m 1,0,-1
 350 300 l 1,1,-1
 350 250 l 1,2,-1
 300 250 l 1,3,-1
 300 200 l 1,4,-1
 100 200 l 1,5,-1
 100 300 l 1,6,-1
 250 300 l 1,7,-1
 250 400 l 1,8,-1
 100 400 l 1,9,-1
 100 500 l 1,10,-1
 250 500 l 1,11,-1
 250 600 l 1,12,-1
 100 600 l 1,13,-1
 100 700 l 1,14,-1
 300 700 l 1,15,-1
 300 650 l 1,16,-1
 350 650 l 1,17,-1
 350 600 l 1,18,-1
 400 600 l 1,19,-1
 400 500 l 1,20,-1
 350 500 l 1,21,-1
 350 400 l 1,22,-1
 400 400 l 1,23,-1
 400 300 l 1,0,-1
600 -200 m 1,24,-1
 500 -200 l 1,25,-1
 500 -100 l 1,26,-1
 300 -100 l 1,27,-1
 300 100 l 1,28,-1
 350 100 l 1,29,-1
 350 150 l 1,30,-1
 400 150 l 1,31,-1
 400 200 l 1,32,-1
 450 200 l 1,33,-1
 450 250 l 1,34,-1
 500 250 l 1,35,-1
 500 300 l 1,36,-1
 600 300 l 1,37,-1
 600 -200 l 1,24,-1
500 0 m 1,38,-1
 500 100 l 1,39,-1
 450 100 l 1,40,-1
 450 50 l 1,41,-1
 400 50 l 1,42,-1
 400 0 l 1,43,-1
 500 0 l 1,38,-1
EndSplineSet
Validated: 1
EndChar

StartChar: divide
Encoding: 247 247 105
Width: 600
GlyphClass: 2
Flags: W
LayerCount: 2
Fore
SplineSet
300 200 m 1,0,-1
 400 200 l 1,1,-1
 400 100 l 1,2,-1
 300 100 l 1,3,-1
 300 200 l 1,0,-1
100 400 m 1,4,-1
 600 400 l 1,5,-1
 600 300 l 1,6,-1
 100 300 l 1,7,-1
 100 400 l 1,4,-1
300 600 m 1,8,-1
 400 600 l 1,9,-1
 400 500 l 1,10,-1
 300 500 l 1,11,-1
 300 600 l 1,8,-1
EndSplineSet
Validated: 1
EndChar

StartChar: DEL
Encoding: 65539 -1 106
Width: 600
GlyphClass: 2
Flags: W
LayerCount: 2
Fore
SplineSet
0 700 m 1,0,-1
 600 700 l 1,1,-1
 600 0 l 1,2,-1
 0 0 l 1,3,-1
 0 700 l 1,0,-1
EndSplineSet
Validated: 1
EndChar
